<?xml version="1.0" standalone="no"?>
<!DOCTYPE svg PUBLIC "-//W3C//DTD SVG 20010904//EN"
 "http://www.w3.org/TR/2001/REC-SVG-20010904/DTD/svg10.dtd">
<svg version="1.0" xmlns="http://www.w3.org/2000/svg"
 width="800.000000pt" height="473.000000pt" viewBox="0 0 800.000000 473.000000"
 preserveAspectRatio="xMidYMid meet">

<g transform="translate(0.000000,473.000000) scale(0.100000,-0.100000)"
fill="#000000" stroke="none">
<path d="M0 2365 l0 -2365 4000 0 4000 0 0 2365 0 2365 -4000 0 -4000 0 0
-2365z m178 2299 c27 -19 30 -78 5 -106 -25 -28 -77 -24 -102 8 -27 35 -26 59
4 89 28 29 61 32 93 9z m98 -31 c3 10 10 17 15 17 5 0 3 -13 -5 -29 -9 -16
-13 -31 -10 -34 3 -3 1 -8 -5 -12 -7 -4 -11 4 -11 19 0 14 -4 28 -10 31 -5 3
-10 12 -10 18 0 7 7 3 15 -7 13 -17 15 -17 21 -3z m197 10 c-7 -2 -14 -21 -15
-41 l-1 -37 -4 35 c-3 19 -10 38 -16 42 -7 4 1 7 18 7 17 0 24 -3 18 -6z m97
-3 c0 -5 6 -10 14 -10 8 0 16 -7 20 -15 9 -24 -5 -46 -27 -43 -17 2 -22 11
-23 41 0 20 3 37 8 37 4 0 8 -4 8 -10z m170 -33 c0 -4 5 -5 10 -2 6 3 10 -1
10 -9 0 -25 -18 -28 -26 -4 l-8 23 -7 -25 c-5 -20 -7 -16 -8 20 0 42 1 44 14
26 8 -11 15 -24 15 -29z m39 1 c-1 -42 -1 -42 -10 -13 -5 17 -7 36 -4 43 9 24
15 11 14 -30z m296 2 c0 -31 -3 -35 -27 -38 -27 -3 -28 -1 -28 38 0 39 1 41
28 38 24 -3 27 -7 27 -38z m145 25 c0 -9 8 -28 17 -43 17 -26 17 -26 0 -13
-12 9 -17 10 -17 2 0 -7 -4 -10 -8 -7 -12 7 -13 76 -2 76 6 0 10 -7 10 -15z
m276 -20 c18 -44 17 -55 -2 -30 -14 19 -16 19 -28 3 -22 -30 -25 -20 -9 22 9
22 18 40 20 40 2 0 11 -16 19 -35z m-214 7 c-15 -5 -16 -38 -2 -45 6 -3 5 -4
-2 -3 -7 1 -14 17 -16 34 -3 27 -1 31 14 25 11 -4 13 -8 6 -11z m-928 -7 c8
-22 -4 -45 -24 -45 -10 0 -20 7 -24 15 -8 22 4 45 24 45 10 0 20 -7 24 -15z
m39 -32 c6 2 14 14 18 28 6 21 7 21 8 -8 1 -29 -2 -33 -24 -33 -22 0 -25 4
-24 33 2 31 2 31 6 4 3 -16 10 -26 16 -24z m122 -3 c8 0 16 12 18 28 4 25 4
24 6 -6 1 -29 -2 -33 -21 -30 -17 2 -23 10 -24 28 -1 22 0 22 3 3 2 -13 10
-23 18 -23z m149 35 c3 -8 1 -15 -4 -15 -6 0 -10 5 -10 10 0 6 -4 10 -10 10
-17 0 -11 -38 8 -43 16 -4 16 -5 -1 -6 -20 -1 -32 21 -23 44 3 8 12 15 20 15
7 0 16 -7 20 -15z m159 -32 c6 2 14 14 18 28 6 21 7 20 8 -9 1 -29 -2 -33 -21
-30 -17 2 -23 10 -24 28 -1 23 -1 23 3 2 3 -13 10 -21 16 -19z m68 38 c-9 -6
-10 -11 -2 -15 20 -13 12 -36 -11 -35 -20 0 -21 1 -5 8 17 6 17 8 3 20 -18 15
-12 31 12 31 13 0 14 -2 3 -9z m38 -23 c0 -27 -2 -29 -8 -13 -5 11 -6 26 -4
33 8 21 13 13 12 -20z m39 25 c-10 -2 -18 -11 -18 -18 0 -8 8 -19 18 -24 16
-10 16 -10 -1 -11 -10 0 -20 7 -23 15 -9 23 3 45 23 44 17 -1 17 -2 1 -6z
m168 -11 c1 -7 0 -8 -3 -2 -8 17 -23 11 -23 -9 0 -11 8 -22 18 -24 13 -4 12
-5 -4 -6 -24 -1 -37 20 -27 44 6 18 35 16 39 -3z m40 9 c-18 -7 -18 -8 -3 -14
25 -10 21 -37 -5 -36 -20 0 -21 1 -5 8 17 6 17 8 3 20 -18 15 -12 31 12 30 14
0 14 -2 -2 -8z m74 5 c0 -3 -4 -8 -10 -11 -5 -3 -10 -1 -10 4 0 6 5 11 10 11
6 0 10 -2 10 -4z m98 -24 c4 -29 -26 -42 -44 -18 -17 24 -6 48 20 44 13 -2 22
-12 24 -26z m60 0 c2 -14 -3 -24 -15 -29 -10 -4 -21 -11 -25 -17 -4 -6 -8 8
-8 32 0 39 2 43 23 40 14 -2 23 -11 25 -26z m160 0 c2 -14 -3 -24 -15 -29 -10
-4 -21 -11 -25 -17 -4 -6 -8 8 -8 32 0 39 2 43 23 40 14 -2 23 -11 25 -26z
m66 13 c8 -23 -4 -45 -26 -45 -10 0 -16 -4 -13 -10 3 -5 1 -10 -4 -10 -6 0
-11 18 -11 40 0 36 3 40 24 40 13 0 26 -7 30 -15z m6321 -185 c3 -5 -3 -10
-15 -10 -12 0 -18 5 -15 10 3 6 10 10 15 10 5 0 12 -4 15 -10z m-724 -78 c41
-45 41 -102 0 -143 l-29 -29 -184 0 c-158 0 -186 3 -204 18 -63 51 -59 131 9
173 29 18 47 19 205 17 l174 -3 29 -33z m749 -1072 l0 -1100 -40 0 -40 0 0
1100 0 1100 40 0 40 0 0 -1100z m-1672 1054 c12 -8 22 -19 22 -25 0 -5 -9 0
-20 11 -22 22 -41 25 -73 9 -21 -10 -21 -10 -3 5 25 20 46 20 74 0z m-5630
-36 l9 -43 7 43 c5 26 13 42 22 42 11 0 14 -15 13 -62 -2 -55 -3 -58 -8 -23
-5 30 -8 36 -14 22 -4 -10 -7 -28 -7 -39 0 -30 -24 -16 -31 18 l-7 29 -1 -32
c-2 -59 -21 -35 -21 27 0 46 3 60 14 60 9 0 18 -16 24 -42z m222 32 c0 -5 -4
-10 -10 -10 -5 0 -10 5 -10 10 0 6 5 10 10 10 6 0 10 -4 10 -10z m5334 -29
c-7 -9 -34 10 -34 24 0 13 3 12 18 -2 10 -10 17 -20 16 -22z m-5966 22 c-15
-2 -42 -2 -60 0 -18 2 -6 4 27 4 33 0 48 -2 33 -4z m300 -5 c22 -22 14 -67
-13 -80 -37 -17 -75 3 -75 40 0 35 16 52 50 52 14 0 31 -5 38 -12z m2676 -7
c4 -5 -3 -7 -14 -4 -26 7 -26 -9 0 -25 24 -15 26 -28 4 -36 -14 -6 -15 -4 -4
9 11 14 10 17 -8 22 -28 7 -30 43 -3 43 11 0 22 -4 25 -9z m242 -11 c8 0 14
-8 13 -17 0 -11 -3 -13 -6 -5 -8 19 -21 14 -26 -10 -2 -13 -5 -5 -5 17 0 22 2
34 5 28 2 -7 11 -13 19 -13z m504 -3 c12 -4 12 -6 -2 -6 -9 -1 -19 -11 -21
-23 -2 -13 -5 -6 -5 17 -1 22 2 35 6 29 4 -6 14 -14 22 -17z m789 -14 c-1 -33
-2 -35 -8 -13 -4 14 -6 31 -3 38 8 22 12 13 11 -25z m-4007 -18 c2 -31 -1 -45
-9 -45 -9 0 -13 16 -13 45 0 25 4 45 9 45 5 0 11 -20 13 -45z m28 -1 c0 -27
-4 -43 -10 -39 -5 3 -10 24 -10 46 0 21 5 39 10 39 6 0 10 -21 10 -46z m65 35
c4 -6 4 -13 0 -17 -4 -4 -10 -1 -12 6 -3 6 -9 9 -15 6 -7 -4 -2 -14 12 -24 15
-11 21 -23 17 -34 -8 -21 -47 -21 -47 0 0 14 3 14 15 4 8 -7 15 -8 15 -2 0 5
-7 15 -15 22 -22 18 -19 50 4 50 11 0 23 -5 26 -11z m35 -34 c0 -25 -4 -45
-10 -45 -5 0 -10 20 -10 45 0 25 5 45 10 45 6 0 10 -20 10 -45z m65 34 c4 -6
4 -13 0 -17 -4 -4 -10 -1 -12 6 -7 19 -23 4 -23 -23 0 -27 16 -42 23 -23 2 7
8 10 12 6 11 -10 -4 -28 -25 -28 -20 0 -32 34 -23 68 6 23 37 30 48 11z m2972
-11 c-3 -8 -6 -5 -6 6 -1 11 2 17 5 13 3 -3 4 -12 1 -19z m440 -10 c-3 -7 -5
-2 -5 12 0 14 2 19 5 13 2 -7 2 -19 0 -25z m597 -7 c1 -16 -2 -27 -6 -24 -5 2
-8 18 -8 35 0 39 13 29 14 -11z m1307 -1 c5 0 9 -5 9 -11 0 -8 -5 -8 -15 1 -8
7 -14 22 -14 34 2 20 2 20 6 -1 2 -13 9 -23 14 -23z m-2982 13 c0 -11 -3 -13
-6 -5 -2 6 -9 12 -14 12 -14 0 -11 -38 4 -43 9 -4 9 -6 -1 -6 -16 -1 -26 24
-18 44 8 21 36 19 35 -2z m57 -10 c2 -13 0 -23 -5 -23 -5 0 -8 8 -7 18 2 9 -4
20 -13 24 -13 6 -12 7 3 5 11 -1 20 -11 22 -24z m26 2 c-2 -14 -6 -25 -8 -25
-2 0 -4 11 -4 25 0 14 4 25 9 25 4 0 6 -11 3 -25z m62 16 c4 -5 -3 -7 -14 -4
-23 6 -26 13 -6 13 8 0 17 -4 20 -9z m123 2 c-18 -5 -18 -5 0 -19 17 -14 16
-14 -5 -4 -25 12 -21 31 6 29 15 -1 14 -2 -1 -6z m67 -1 c2 -4 -4 -8 -14 -8
-10 0 -16 4 -14 8 3 4 9 8 14 8 5 0 11 -4 14 -8z m65 -9 c0 -11 -3 -13 -6 -5
-8 19 -21 14 -26 -10 -4 -20 -4 -19 -6 5 -1 21 4 27 19 27 13 0 20 -6 19 -17z
m59 -20 c-1 -37 -1 -37 -5 -5 -5 35 -12 39 -32 20 -10 -11 -11 -10 -6 5 4 9
16 17 26 17 16 0 19 -7 17 -37z m43 28 c-11 -7 -10 -11 5 -19 15 -9 17 -13 7
-23 -11 -11 -15 -11 -25 0 -11 10 -9 11 7 6 19 -6 19 -6 3 8 -10 8 -18 19 -18
26 0 6 8 11 18 11 13 0 14 -2 3 -9z m114 -21 c0 -26 -26 -36 -31 -12 -1 7 0 8
3 2 8 -17 23 -11 23 9 0 11 -8 22 -17 25 -14 4 -14 4 2 3 14 -2 20 -10 20 -27z
m112 -7 c-3 -10 -5 -4 -5 12 0 17 2 24 5 18 2 -7 2 -21 0 -30z m123 27 c0 -5
-7 -7 -15 -4 -11 4 -15 -1 -16 -17 l-2 -24 -4 23 c-3 15 -10 22 -19 18 -8 -3
-14 -1 -14 4 0 6 16 10 35 10 19 0 35 -4 35 -10z m47 3 c-9 -2 -14 -9 -11 -15
4 -7 2 -8 -5 -4 -15 10 -4 26 17 25 15 -1 15 -2 -1 -6z m113 -10 c0 -10 -4
-14 -8 -8 -4 6 -11 13 -16 18 -5 4 -2 7 7 7 10 0 17 -8 17 -17z m40 13 c0 -3
-4 -8 -10 -11 -5 -3 -10 -1 -10 4 0 6 5 11 10 11 6 0 10 -2 10 -4z m57 -33
c-3 -10 -5 -4 -5 12 0 17 2 24 5 18 2 -7 2 -21 0 -30z m30 22 c0 -8 -4 -12 -9
-9 -5 3 -6 10 -3 15 9 13 12 11 12 -6z m90 0 c0 -8 -4 -12 -9 -9 -5 3 -6 10
-3 15 9 13 12 11 12 -6z m131 -21 c-3 -14 -5 -12 -10 9 -3 19 -2 25 4 19 6 -6
8 -18 6 -28z m59 16 c3 -10 2 -11 -4 -4 -4 6 -15 14 -23 17 -11 5 -9 6 4 4 11
-1 21 -9 23 -17z m28 -4 c0 -15 -4 -21 -9 -16 -5 5 -6 16 -3 24 9 22 12 20 12
-8z m73 17 c-10 -2 -18 -12 -18 -20 0 -9 -3 -14 -6 -10 -12 11 5 37 23 36 17
-1 17 -2 1 -6z m69 -24 c1 -19 1 -20 -4 -4 -3 11 -10 24 -17 28 -7 6 -6 7 4 4
8 -2 16 -14 17 -28z m39 22 c-18 -7 -18 -8 -3 -14 9 -3 17 -11 17 -17 0 -5 -9
-2 -19 7 -22 18 -19 33 7 32 14 0 14 -2 -2 -8z m80 0 c-3 -5 1 -11 9 -15 8 -3
15 -10 15 -16 0 -5 -9 -2 -19 7 -17 14 -20 33 -5 33 3 0 3 -4 0 -9z m-4738 -8
c-15 -2 -42 -2 -60 0 -18 2 -6 4 27 4 33 0 48 -2 33 -4z m3146 -19 c3 -8 2
-12 -4 -9 -6 3 -10 10 -10 16 0 14 7 11 14 -7z m1079 -4 c3 -11 1 -18 -4 -14
-5 3 -9 12 -9 20 0 20 7 17 13 -6z m131 5 c3 -8 1 -15 -4 -15 -6 0 -10 7 -10
15 0 8 2 15 4 15 2 0 6 -7 10 -15z m66 -10 c14 -19 14 -19 -2 -6 -10 7 -18 18
-18 24 0 6 1 8 3 6 1 -2 9 -13 17 -24z m-1360 11 c0 -3 -4 -8 -10 -11 -5 -3
-10 -1 -10 4 0 6 5 11 10 11 6 0 10 -2 10 -4z m301 -11 c11 6 11 5 2 -5 -12
-14 -33 -6 -33 13 0 8 3 7 9 -2 5 -8 14 -10 22 -6z m420 -8 c-10 -9 -11 -8 -5
6 3 10 9 15 12 12 3 -3 0 -11 -7 -18z m151 1 c-9 -9 -15 -9 -24 1 -11 10 -10
11 5 6 10 -5 17 -2 17 6 0 7 3 9 7 6 4 -4 1 -13 -5 -19z m-637 2 c3 -6 -1 -7
-9 -4 -18 7 -21 14 -7 14 6 0 13 -4 16 -10z m2663 -15 c-3 -3 -9 2 -12 12 -6
14 -5 15 5 6 7 -7 10 -15 7 -18z m102 22 c0 -2 -10 -12 -22 -23 l-23 -19 19
23 c18 21 26 27 26 19z m-6062 -14 c-15 -2 -42 -2 -60 0 -18 2 -6 4 27 4 33 0
48 -2 33 -4z m52 -405 c0 -31 -3 -38 -20 -38 -13 0 -20 7 -20 20 0 11 -7 20
-15 20 -8 0 -15 -9 -15 -20 0 -13 -7 -20 -20 -20 -17 0 -20 7 -20 39 0 31 6
43 27 59 27 20 27 20 55 -1 22 -16 28 -29 28 -59z m180 57 c0 -21 28 -19 33 3
3 9 5 -3 5 -28 0 -25 -2 -37 -5 -27 -5 21 -33 23 -33 2 0 -8 -4 -15 -10 -15
-5 0 -10 18 -10 40 0 22 5 40 10 40 6 0 10 -7 10 -15z m100 -17 c0 -9 3 -9 12
0 18 18 77 15 85 -4 5 -15 7 -15 15 0 18 33 56 7 42 -29 -7 -18 -44 -20 -45
-2 0 10 -2 10 -6 0 -8 -20 -23 -15 -23 7 0 28 -20 25 -21 -2 l-2 -23 -4 23
c-5 27 -23 29 -23 2 0 -21 -19 -28 -21 -7 0 10 -2 10 -6 0 -6 -15 -39 -17 -48
-3 -11 18 6 50 26 50 10 0 19 -5 19 -12z m1730 -198 c-13 -9 -13 -11 0 -20 10
-6 11 -10 3 -10 -7 0 -13 -4 -13 -10 0 -5 9 -10 19 -10 14 0 18 5 14 20 -4 16
0 20 21 20 21 0 26 -5 26 -25 0 -14 -4 -25 -10 -25 -5 0 -7 6 -4 14 3 8 1 17
-5 21 -7 3 -11 -2 -11 -14 0 -17 -6 -21 -35 -21 -32 0 -35 3 -35 28 0 33 7 42
29 42 14 0 14 -2 1 -10z m607 -2 c11 -17 53 -18 53 -1 0 7 5 13 10 13 6 0 10
-16 10 -35 0 -31 -3 -35 -26 -35 -15 0 -33 8 -41 18 -14 16 -14 16 -9 0 3 -10
1 -18 -4 -18 -6 0 -10 5 -10 10 0 6 -5 10 -11 10 -5 0 -7 -4 -4 -10 3 -5 1
-10 -4 -10 -12 0 -15 52 -4 63 10 11 31 8 40 -5z m438 0 c-19 -11 -19 -11 0
-19 16 -6 17 -8 3 -8 -9 -1 -19 -9 -21 -18 -3 -10 -5 -4 -6 13 -1 34 5 44 28
44 13 -1 12 -3 -4 -12z m132 -40 c-2 -13 -4 -5 -4 17 -1 22 1 32 4 23 2 -10 2
-28 0 -40z m233 17 c0 -28 -4 -35 -20 -35 -11 0 -20 6 -20 13 0 9 -2 9 -8 0
-8 -13 -82 -14 -99 0 -10 7 -13 4 -13 -12 0 -15 -6 -21 -22 -20 -19 1 -19 2
-5 6 17 4 17 5 1 17 -10 8 -15 20 -11 30 7 18 37 22 37 5 0 -8 4 -8 13 -2 17
14 91 13 99 0 6 -9 8 -9 8 1 0 6 7 12 15 12 8 0 15 5 15 10 0 6 2 10 5 10 3 0
5 -16 5 -35z m433 11 c7 2 12 -5 12 -20 0 -17 -3 -22 -12 -15 -7 7 -13 5 -16
-3 -3 -7 -6 -3 -6 10 -1 12 -5 22 -10 22 -5 0 -12 -10 -14 -22 -4 -20 -4 -19
-6 5 -1 18 4 27 14 27 8 0 16 6 16 13 1 6 3 4 6 -5 2 -9 10 -15 16 -12z m447
2 c0 -7 -5 -6 -13 1 -16 13 -27 5 -27 -21 0 -15 5 -18 21 -13 15 5 19 4 15 -4
-7 -10 -46 -16 -46 -7 0 2 -3 11 -6 19 -7 19 22 48 41 41 8 -4 15 -11 15 -16z
m624 16 c21 -8 20 -33 -1 -41 -10 -4 -21 -11 -25 -17 -4 -6 -8 6 -8 27 0 37 5
42 34 31z m452 -6 c10 -16 12 -58 3 -58 -4 0 -10 6 -12 13 -4 9 -8 8 -16 -3
-9 -12 -11 -9 -11 16 0 42 19 59 36 32z m614 2 c-13 -9 -13 -11 0 -20 10 -6
11 -10 3 -10 -7 0 -13 -7 -13 -15 0 -8 -4 -15 -10 -15 -11 0 -14 53 -3 63 3 4
13 7 22 7 14 0 14 -2 1 -10z m495 0 c3 -5 -2 -10 -12 -10 -15 0 -15 -2 4 -15
12 -8 29 -12 38 -9 13 5 14 8 3 15 -10 7 -9 9 4 9 9 0 18 -5 20 -10 2 -6 13
-2 25 9 l21 20 4 -35 c3 -26 0 -34 -12 -34 -9 0 -21 5 -28 12 -8 8 -12 9 -12
1 0 -7 -19 -11 -45 -11 -25 0 -45 4 -45 9 0 4 8 6 18 3 15 -5 15 -4 -2 10 -10
8 -16 22 -13 31 7 17 23 20 32 5z m425 -25 c0 -27 -3 -30 -35 -32 -19 -2 -35
1 -35 6 0 5 10 7 23 4 l22 -5 -24 20 c-29 24 -22 40 19 38 26 -1 30 -5 30 -31z
m-3230 8 c0 -15 1 -15 13 2 11 14 16 15 22 5 6 -10 9 -9 16 1 7 11 9 11 8 -1
0 -8 -4 -24 -9 -35 -7 -19 -8 -19 -15 -2 -7 16 -8 16 -20 1 -11 -15 -13 -14
-23 14 -7 19 -7 32 -1 32 5 0 9 -8 9 -17z m320 -13 c0 -36 -7 -38 -20 -7 l-9
22 0 -22 c-1 -16 -7 -23 -21 -23 -11 0 -20 6 -21 13 0 10 -2 10 -6 0 -12 -31
-57 -7 -45 25 2 6 13 12 23 12 10 0 19 -6 19 -12 0 -9 4 -8 10 2 8 12 10 11
10 -7 0 -13 5 -23 10 -23 6 0 10 9 10 19 0 17 11 28 33 30 4 1 7 -12 7 -29z
m590 -1 c0 -19 -4 -28 -11 -24 -6 4 -8 13 -5 21 3 8 1 14 -4 14 -6 0 -10 -9
-10 -21 0 -29 -35 -21 -36 9 -1 19 -1 19 3 2 6 -25 23 -26 23 -1 0 17 11 28
33 30 4 1 7 -13 7 -30z m474 15 c9 -8 16 -11 16 -5 0 6 4 11 9 11 5 0 4 -15
-2 -35 -6 -19 -14 -35 -19 -35 -5 0 -6 5 -3 10 8 14 -4 50 -17 50 -6 0 -8 -9
-5 -20 3 -11 1 -20 -4 -20 -5 0 -9 9 -9 20 0 11 -4 20 -10 20 -5 0 -10 -9 -10
-20 0 -15 -7 -20 -29 -20 -34 0 -50 17 -26 26 12 5 13 9 4 14 -7 5 4 8 25 8
21 0 40 3 43 6 10 10 21 7 37 -10z m-2912 -19 c-3 -20 -10 -25 -33 -25 -24 0
-29 4 -29 25 0 22 4 25 34 25 30 0 33 -2 28 -25z m56 -7 c-2 -24 -8 -33 -23
-35 -11 -2 -14 0 -7 3 10 5 9 9 -4 19 -22 16 -12 45 16 45 18 0 21 -5 18 -32z
m19 -5 c-3 -10 -5 -4 -5 12 0 17 2 24 5 18 2 -7 2 -21 0 -30z m43 17 c-6 -11
-7 -20 -2 -20 6 0 12 9 15 20 3 11 12 20 20 20 23 0 31 -19 12 -26 -12 -5 -13
-9 -5 -14 7 -4 -6 -8 -29 -8 -40 -1 -53 10 -30 24 8 4 7 9 -2 15 -10 6 -8 9 9
9 20 0 21 -3 12 -20z m468 -8 c3 -17 -2 -22 -17 -22 -16 0 -21 6 -21 26 0 33
33 30 38 -4z m43 14 c-7 -9 -7 -16 1 -24 8 -8 6 -11 -9 -9 -28 2 -28 42 -1 44
15 2 17 -1 9 -11z m389 3 c0 -5 -8 -13 -17 -16 -15 -6 -15 -7 3 -14 18 -7 18
-8 -1 -8 -11 -1 -26 8 -33 19 -7 11 -18 20 -25 20 -8 0 -7 -4 3 -10 13 -9 13
-10 0 -11 -10 0 -8 -3 5 -9 19 -8 19 -9 -2 -9 -18 -1 -23 5 -23 23 0 22 4 24
45 24 25 0 45 -4 45 -9z m620 -14 c0 -18 -5 -25 -19 -25 -11 0 -21 6 -24 13
-7 20 4 37 24 37 14 0 19 -7 19 -25z m560 0 c0 -18 -5 -25 -20 -25 -15 0 -20
7 -20 25 0 18 5 25 20 25 15 0 20 -7 20 -25z m79 -2 c-2 -24 -2 -25 -6 -5 -2
12 -9 22 -14 22 -5 0 -10 -10 -10 -22 l-2 -23 -4 23 c-2 12 -8 22 -13 22 -5 0
-11 -10 -13 -22 -4 -20 -4 -19 -6 5 -1 25 2 27 34 27 32 0 35 -2 34 -27z m80
0 c-2 -24 -2 -25 -6 -5 -2 12 -9 22 -14 22 -5 0 -10 -10 -10 -22 l-2 -23 -4
23 c-2 12 -8 22 -13 22 -5 0 -11 -10 -13 -22 -4 -20 -4 -19 -6 5 -1 25 2 27
34 27 32 0 35 -2 34 -27z m131 10 c0 -14 -2 -15 -9 -5 -7 11 -9 11 -14 -2 -4
-9 1 -16 11 -19 16 -4 16 -5 0 -6 -20 -1 -32 15 -24 34 8 21 36 19 36 -2z
m798 -6 c4 -20 -25 -34 -40 -19 -15 15 -1 44 19 40 10 -2 19 -11 21 -21z m82
8 c0 -9 6 -12 16 -8 13 5 13 8 2 15 -9 7 -8 8 7 6 12 -2 21 -12 23 -26 3 -19
-1 -22 -27 -20 -22 2 -31 7 -31 20 0 26 -20 22 -21 -4 l-2 -23 -4 23 c-2 12
-8 22 -13 22 -5 0 -11 -10 -13 -22 -4 -20 -4 -19 -6 5 -1 25 2 27 34 27 24 0
35 -5 35 -15z m99 -12 c-2 -24 -2 -25 -6 -5 -2 12 -8 22 -13 22 -5 0 -11 -10
-13 -22 -4 -20 -4 -19 -6 5 -1 21 4 27 19 27 15 0 20 -6 19 -27z m97 16 c3 -5
-3 -12 -12 -16 -16 -6 -16 -7 2 -14 12 -4 2 -7 -28 -7 -44 0 -48 2 -48 23 0
21 4 24 40 23 22 0 43 -4 46 -9z m384 -1 c0 -5 -4 -7 -9 -3 -5 3 -12 1 -16 -4
-3 -5 2 -14 11 -19 12 -7 6 -9 -25 -9 -43 0 -56 9 -48 31 6 15 87 19 87 4z
m31 -10 l2 -23 4 23 c2 12 8 22 12 22 5 0 8 -10 7 -22 -1 -16 -7 -23 -21 -23
-13 0 -21 8 -23 23 -2 12 1 22 7 22 6 0 12 -10 12 -22z m61 13 c-11 -7 -10 -9
3 -15 20 -7 10 -26 -13 -26 -13 0 -14 2 -4 9 11 7 10 9 -3 15 -20 7 -10 26 13
26 13 0 14 -2 4 -9z m735 -28 c-3 -10 -5 -4 -5 12 0 17 2 24 5 18 2 -7 2 -21
0 -30z m-6997 -30 c-8 -3 -22 -11 -30 -17 -13 -10 -13 -9 -1 7 7 9 21 17 30
16 13 0 14 -1 1 -6z m268 -20 c-10 -2 -18 -9 -18 -14 0 -5 8 -9 18 -10 13 0
12 -2 -5 -9 -13 -5 -23 -12 -23 -15 0 -3 10 -10 23 -15 22 -10 22 -10 -3 -7
-21 2 -25 8 -28 40 -3 35 -2 37 25 36 17 -1 21 -3 11 -6z m147 -28 c0 -19 -3
-35 -7 -35 -5 0 -8 16 -8 35 0 19 3 35 8 35 4 0 7 -16 7 -35z m-372 5 c-3 -12
-19 -28 -35 -36 -31 -16 -29 -33 5 -35 16 -1 17 -3 5 -6 -9 -2 -26 1 -38 7
-17 9 -18 13 -8 26 51 64 81 82 71 44z m-86 -27 c-3 -10 -5 -4 -5 12 0 17 2
24 5 18 2 -7 2 -21 0 -30z m102 -27 c-23 -20 -23 -20 -6 0 9 11 18 31 18 45
l2 24 4 -24 c3 -16 -3 -31 -18 -45z m267 29 c1 -16 -1 -24 -3 -17 -4 9 -9 10
-18 2 -9 -8 -12 -4 -11 18 1 40 31 37 32 -3z m64 10 c0 -14 -8 -29 -19 -35
-29 -15 -31 -13 -31 25 0 31 3 35 25 35 20 0 25 -5 25 -25z m87 9 c7 -19 -20
-49 -36 -40 -6 4 -11 18 -11 32 0 17 5 24 20 24 11 0 23 -7 27 -16z m91 -1 c2
-7 -3 -13 -12 -13 -9 0 -16 -4 -16 -10 0 -5 8 -7 18 -3 13 4 14 3 6 -6 -15
-16 -44 -3 -44 20 0 29 -18 22 -23 -8 -4 -26 -4 -26 -6 4 -1 31 0 32 36 30 20
-1 38 -8 41 -14z m6122 -163 l0 -40 -2300 0 -2300 0 0 40 0 40 2300 0 2300 0
0 -40z m-4650 -6 c0 -8 -4 -12 -10 -9 -5 3 -10 10 -10 16 0 5 5 9 10 9 6 0 10
-7 10 -16z m4910 1 c0 -8 -2 -15 -4 -15 -2 0 -6 7 -10 15 -3 8 -1 15 4 15 6 0
10 -7 10 -15z m-6890 -101 c-38 -8 -90 -9 -90 -2 0 4 24 7 53 7 28 -1 45 -3
37 -5z m190 -44 c0 -19 6 -30 18 -33 10 -3 6 -5 -10 -6 -26 -1 -28 2 -28 40 0
24 4 38 10 34 6 -3 10 -19 10 -35z m47 -22 c-2 -13 -4 -3 -4 22 0 25 2 35 4
23 2 -13 2 -33 0 -45z m-265 27 c-4 -13 -10 -25 -14 -25 -9 0 -9 -2 -2 28 4
12 10 22 14 22 5 0 5 -11 2 -25z m326 -19 c3 -22 0 -26 -22 -26 -23 0 -26 4
-26 35 0 31 2 34 23 26 14 -5 23 -18 25 -35z m90 1 c3 -21 -1 -27 -17 -27 -25
0 -37 18 -17 26 23 9 19 21 -6 19 -14 -1 -25 -10 -29 -26 -6 -22 -7 -21 -8 8
-1 31 0 32 37 30 32 -3 37 -6 40 -30z m62 16 c1 -16 2 -16 15 1 18 23 19 11 4
-33 -14 -39 -24 -40 -25 -1 -2 48 -23 57 -27 11 -2 -32 -17 -25 -17 9 0 25 4
30 25 30 17 0 25 -6 25 -17z m-507 -66 l42 -4 -45 1 c-44 1 -45 1 -46 36 -1
34 -1 34 3 3 4 -29 7 -32 46 -36z m28 15 c-24 -2 -47 0 -52 5 -4 4 15 6 44 3
l52 -5 -44 -3z m2154 -127 c1 -14 -2 -22 -5 -19 -3 3 -5 16 -5 29 -1 14 2 22
5 19 3 -3 5 -16 5 -29z m32 -12 c-3 -10 -5 -2 -5 17 0 19 2 27 5 18 2 -10 2
-26 0 -35z m60 0 c-3 -10 -5 -2 -5 17 0 19 2 27 5 18 2 -10 2 -26 0 -35z m120
0 c-3 -10 -5 -2 -5 17 0 19 2 27 5 18 2 -10 2 -26 0 -35z m175 17 c-2 -16 -6
-30 -8 -30 -2 0 -4 14 -4 30 0 17 4 30 8 30 5 0 7 -13 4 -30z m45 -17 c-3 -10
-5 -2 -5 17 0 19 2 27 5 18 2 -10 2 -26 0 -35z m83 43 c0 -2 -7 -7 -16 -10 -8
-3 -12 -2 -9 4 6 10 25 14 25 6z m50 -17 c0 -6 -4 -7 -10 -4 -5 3 -10 11 -10
16 0 6 5 7 10 4 6 -3 10 -11 10 -16z m235 -8 c0 -16 -3 -27 -7 -24 -13 7 -7
53 6 53 1 0 1 -13 1 -29z m69 13 c3 -8 2 -12 -4 -9 -6 3 -10 10 -10 16 0 14 7
11 14 -7z m-597 -31 c-3 -10 -5 -4 -5 12 0 17 2 24 5 18 2 -7 2 -21 0 -30z
m655 12 c3 -13 1 -22 -3 -19 -9 5 -13 44 -5 44 2 0 6 -11 8 -25z m-798 0 c-4
-8 -11 -12 -16 -9 -6 4 -5 10 3 15 19 12 19 11 13 -6z m-296 -20 c-3 -3 -9 2
-12 12 -6 14 -5 15 5 6 7 -7 10 -15 7 -18z m823 2 c-10 -9 -11 -8 -5 6 3 10 9
15 12 12 3 -3 0 -11 -7 -18z m117 -2 c-3 -3 -9 2 -12 12 -6 14 -5 15 5 6 7 -7
10 -15 7 -18z m-883 -122 c13 -12 15 -27 11 -57 -3 -23 -6 -49 -7 -58 0 -22
-7 -22 -52 -3 -37 15 -47 31 -47 75 0 53 59 80 95 43z m165 2 c0 -8 -7 -15
-15 -15 -8 0 -15 7 -15 15 0 8 7 15 15 15 8 0 15 -7 15 -15z m130 -15 c0 -27
2 -29 20 -18 25 16 35 5 19 -20 -11 -18 -10 -24 5 -41 19 -21 19 -21 -2 -21
-11 0 -23 6 -26 13 -5 10 -7 10 -12 0 -3 -7 -12 -13 -20 -13 -10 0 -14 15 -14
58 0 32 3 62 7 65 14 15 23 6 23 -23z m242 15 c0 -5 -5 -11 -11 -13 -6 -2 -11
4 -11 13 0 9 5 15 11 13 6 -2 11 -8 11 -13z m138 -15 c0 -27 2 -29 20 -18 25
16 38 2 17 -19 -16 -16 -15 -18 5 -40 21 -22 21 -23 2 -23 -11 0 -25 5 -32 12
-9 9 -12 9 -12 0 0 -7 -7 -12 -15 -12 -12 0 -15 13 -15 58 0 32 3 62 7 65 14
15 23 6 23 -23z m3158 -2 c9 -9 12 -9 12 0 0 25 20 11 21 -15 1 -18 3 -22 6
-10 6 25 37 17 41 -10 3 -20 -1 -22 -32 -21 -26 1 -36 6 -38 20 -3 19 -4 19
-25 -1 -29 -27 -33 -26 -33 7 0 42 22 56 48 30z m222 -23 c0 -19 -4 -35 -10
-35 -5 0 -10 16 -10 35 0 19 5 35 10 35 6 0 10 -16 10 -35z m17 -17 c-2 -13
-4 -5 -4 17 -1 22 1 32 4 23 2 -10 2 -28 0 -40z m-4009 -6 c4 -40 22 -32 22 9
0 19 5 29 15 29 11 0 15 -12 15 -46 l0 -45 -37 3 c-37 3 -38 4 -41 47 -2 32 0
42 10 39 7 -3 14 -19 16 -36z m104 -4 c5 -50 4 -53 -17 -45 -20 8 -21 87 -1
87 9 0 15 -15 18 -42z m76 27 c-2 -5 -10 -10 -18 -10 -8 0 -15 -9 -15 -20 0
-12 7 -20 17 -20 29 0 25 -20 -4 -23 -21 -3 -30 2 -39 21 -16 35 4 69 37 65
14 -2 23 -7 22 -13z m247 -30 c0 -34 -3 -40 -22 -43 -13 -2 -23 -10 -23 -18 0
-8 -7 -14 -15 -14 -12 0 -15 13 -15 61 l0 60 38 -3 c36 -3 37 -4 37 -43z m56
-1 c8 -44 6 -49 -16 -41 -10 4 -15 20 -15 48 0 53 22 48 31 -7z m79 32 c0 -8
-8 -13 -17 -12 -12 1 -18 -6 -18 -19 0 -12 7 -20 17 -20 27 0 26 -20 0 -23
-43 -6 -71 45 -40 76 17 17 58 15 58 -2z m178 -4 c2 -8 -2 -10 -15 -6 -14 6
-14 3 5 -15 18 -18 21 -26 11 -37 -16 -19 -59 -18 -59 2 0 11 6 14 23 9 22 -6
22 -6 -2 13 -16 13 -22 25 -18 36 8 20 48 18 55 -2z m3132 6 c0 -9 4 -8 11 2
8 11 9 8 4 -15 -3 -16 -11 -34 -17 -40 -7 -7 -9 -5 -6 5 3 8 1 25 -3 38 -5 13
-5 22 1 22 6 0 10 -6 10 -12z m90 -13 c0 -15 -6 -25 -14 -25 -17 0 -31 18 -21
28 3 3 10 0 15 -8 8 -13 10 -12 10 2 0 9 -6 19 -12 21 -8 3 -6 6 5 6 12 1 17
-7 17 -24z m-5653 -220 c-4 -8 -2 -17 3 -20 6 -4 10 0 10 8 0 9 12 14 36 15
34 1 35 0 32 -31 -2 -23 -9 -33 -23 -35 -17 -3 -17 -1 -5 7 18 13 9 14 -52 12
-21 -1 -38 3 -38 9 0 5 8 7 18 4 16 -5 16 -5 0 9 -24 19 -23 37 3 37 14 0 19
-5 16 -15z m132 -22 c-2 -24 -2 -25 -6 -5 -2 12 -8 22 -13 22 -5 0 -11 -10
-13 -22 -4 -20 -4 -19 -6 5 -1 21 4 27 19 27 15 0 20 -6 19 -27z m51 15 c0 24
45 9 48 -15 2 -13 -1 -23 -7 -23 -6 0 -12 10 -12 23 l-2 22 -4 -22 c-7 -35
-43 -31 -43 5 0 21 2 24 10 12 7 -11 10 -12 10 -2z m1708 -103 c-5 -79 -10
-112 -24 -133 -10 -15 -23 -36 -29 -47 -9 -18 -21 -20 -99 -20 l-88 0 -15 44
c-8 25 -21 54 -29 66 -8 12 -17 42 -20 68 -6 39 -4 47 9 47 9 0 19 -4 22 -10
3 -5 14 -9 23 -9 15 1 15 2 0 6 -36 9 -16 23 27 18 34 -3 45 -1 45 10 0 19
-12 25 -65 30 -51 5 -65 11 -65 26 0 5 65 9 156 9 l157 0 -5 -105z m3020 53
c-3 -52 -3 -53 -43 -64 -32 -8 -41 -16 -43 -36 -2 -16 2 -25 11 -25 8 0 29 -5
46 -13 29 -12 31 -15 31 -66 l0 -54 -105 0 c-58 0 -105 2 -105 4 0 3 7 12 16
21 15 15 15 17 -5 22 -21 5 -22 10 -17 82 3 42 5 79 6 84 0 4 19 7 43 7 25 0
52 7 63 16 15 13 16 15 2 10 -12 -3 -18 2 -20 16 -2 17 -11 23 -38 26 -19 2
-39 8 -44 13 -6 5 31 9 98 9 l107 0 -3 -52z m-2738 -22 c0 -4 7 -3 15 4 16 13
45 7 45 -10 0 -5 -8 -10 -17 -10 -15 0 -16 -2 -3 -10 10 -6 5 -9 -18 -8 -25 1
-32 6 -33 22 -2 20 -2 20 -6 -1 -3 -16 -11 -23 -29 -23 -20 0 -24 5 -24 31 0
24 4 30 15 25 8 -3 15 -1 15 4 0 6 9 5 20 -2 11 -7 20 -17 20 -22z m476 14 c9
0 14 -10 13 -27 -1 -17 -3 -21 -6 -10 -2 9 -8 17 -13 17 -5 0 -11 -8 -13 -17
-3 -10 -5 0 -5 22 0 22 2 34 5 28 2 -7 11 -13 19 -13z m3449 -24 c0 -24 -3
-42 -7 -39 -10 5 -10 45 -2 67 9 22 9 21 9 -28z m315 4 c0 -24 -10 -50 -19
-50 -4 0 -5 16 -3 35 2 20 0 35 -6 35 -18 0 -25 -20 -12 -34 8 -11 6 -14 -13
-12 -19 1 -24 7 -24 28 0 15 4 25 9 22 4 -3 16 -1 25 5 21 12 43 -3 43 -29z
m-4390 22 c0 -5 10 -8 23 -8 16 1 23 -5 24 -24 l3 -25 -12 25 c-11 25 -11 25
-15 3 -3 -15 -12 -23 -24 -23 -14 0 -19 7 -19 30 0 17 5 30 10 30 6 0 10 -4
10 -8z m282 -19 l11 -28 7 25 8 25 1 -27 c1 -25 -2 -27 -38 -25 -38 1 -38 2
-29 29 13 35 25 36 40 1z m152 17 c32 -12 36 -50 6 -50 -19 0 -24 10 -21 38 1
6 -3 12 -9 12 -5 0 -11 -12 -11 -27 -2 -28 -2 -28 -6 -3 -3 14 -10 28 -17 32
-17 11 28 10 58 -2z m236 -20 c0 -16 -4 -30 -10 -30 -5 0 -10 14 -10 30 0 17
5 30 10 30 6 0 10 -13 10 -30z m2386 19 c4 -8 0 -9 -15 -4 -17 5 -21 2 -21
-14 0 -12 5 -21 11 -21 5 0 7 5 4 10 -3 6 -2 10 3 10 16 0 22 -13 11 -26 -8
-10 -16 -11 -30 -3 -19 10 -26 39 -12 52 10 11 41 8 49 -4z m41 4 c-14 -4 -16
-8 -6 -19 9 -11 8 -14 -2 -15 -8 0 -5 -4 6 -9 19 -8 19 -9 -2 -9 -19 -1 -23 4
-23 29 0 25 4 30 23 29 17 -1 18 -2 4 -6z m73 -3 c0 -5 -7 -7 -15 -4 -9 4 -18
-1 -21 -10 -9 -22 5 -34 17 -16 8 13 10 13 18 0 8 -11 12 -8 21 15 11 29 12
29 26 11 24 -33 16 -41 -41 -44 -52 -3 -55 -2 -55 21 0 13 3 27 7 30 10 11 43
8 43 -3z m120 0 c0 -5 -7 -7 -15 -4 -10 4 -15 0 -15 -15 0 -12 5 -21 11 -21 5
0 7 5 3 12 -5 8 -2 9 9 5 12 -5 17 -1 17 13 0 17 7 20 49 20 42 0 51 -3 56
-21 4 -12 3 -25 -2 -30 -8 -8 -56 -11 -103 -8 -8 1 -21 0 -28 -2 -18 -5 -37
24 -29 45 7 17 47 23 47 6z m137 -37 c-3 -10 -5 -2 -5 17 0 19 2 27 5 18 2
-10 2 -26 0 -35z m63 37 c0 -5 -7 -7 -15 -4 -10 4 -15 0 -15 -15 0 -12 5 -21
11 -21 5 0 7 5 4 10 -3 6 -2 10 3 10 16 0 22 -13 11 -26 -8 -10 -16 -11 -30
-3 -19 10 -26 39 -12 52 10 11 43 8 43 -3z m46 3 c-15 -4 -16 -7 -5 -14 12 -8
12 -11 -1 -19 -13 -8 -12 -10 3 -10 10 0 16 -4 12 -10 -9 -14 -32 -1 -39 22
-7 28 0 38 27 37 19 -1 19 -2 3 -6z m69 -23 c0 -18 -6 -26 -22 -28 -20 -3 -23
1 -23 28 0 27 3 31 23 28 16 -2 22 -10 22 -28z m55 4 c6 -14 10 -26 10 -27 0
-1 -13 -2 -29 -3 -28 -1 -28 0 -19 27 12 36 26 37 38 3z m66 15 c4 -8 0 -9
-15 -4 -17 5 -21 2 -21 -14 0 -12 5 -21 11 -21 5 0 7 5 4 10 -3 6 1 10 9 10
20 0 21 -26 1 -34 -12 -4 -45 17 -45 29 0 30 41 48 56 24z m112 -21 c3 -24 0
-28 -22 -28 -21 0 -26 5 -26 25 0 19 -5 25 -22 25 -22 -1 -22 -1 -3 -12 19
-11 19 -11 0 -19 -18 -7 -18 -8 -2 -8 10 -1 16 -5 12 -11 -11 -18 -35 2 -35
32 0 29 1 29 48 26 43 -3 47 -5 50 -30z m62 -12 c0 -6 -11 -11 -25 -11 -28 0
-30 7 -14 37 11 21 12 21 25 3 8 -10 14 -24 14 -29z m60 35 c0 -5 -8 -8 -17
-7 -21 1 -24 -25 -4 -32 8 -3 11 0 7 7 -4 6 -2 11 3 11 15 0 14 -27 -1 -32
-22 -8 -38 3 -38 26 0 13 3 26 7 29 9 10 43 8 43 -2z m68 -15 c5 -26 -26 -50
-45 -35 -14 12 -17 41 -6 53 13 13 48 1 51 -18z m107 -8 c1 -27 -14 -41 -16
-15 0 10 -2 10 -6 0 -9 -24 -23 -13 -23 18 0 26 3 30 23 27 16 -2 22 -10 22
-30z m41 23 c-19 -7 -19 -8 0 -15 19 -8 19 -8 -1 -16 -17 -7 -17 -9 -2 -9 9
-1 17 -5 17 -10 0 -5 -9 -7 -20 -4 -14 4 -20 14 -20 34 0 24 4 29 23 28 20 0
20 -1 3 -8z m53 -13 l8 -23 7 23 c10 31 26 28 26 -6 0 -25 -4 -28 -35 -29 -32
-1 -35 2 -35 28 0 34 17 38 29 7z m71 -8 c0 -16 -4 -30 -10 -30 -5 0 -10 14
-10 30 0 17 5 30 10 30 6 0 10 -13 10 -30z m-3957 8 c-6 -7 -13 -20 -16 -28
-3 -9 -6 -3 -6 13 -1 19 4 27 15 27 12 0 14 -4 7 -12z m166 -15 l-1 -28 -8 25
-7 25 -11 -25 -11 -25 0 28 c-1 21 4 27 19 27 15 0 20 -6 19 -27z m81 -8 c0
-30 -3 -35 -22 -35 -19 0 -20 2 -8 10 13 9 13 10 0 11 -8 1 -21 1 -27 0 -7 -1
-13 8 -13 21 0 19 6 23 35 25 34 3 35 2 35 -32z m-596 -111 c-3 -35 -14 -44
-14 -12 0 21 7 38 15 38 1 0 1 -12 -1 -26z m30 -4 c-6 -6 -10 -3 -10 10 0 13
4 16 10 10 7 -7 7 -13 0 -20z m23 -17 c-3 -10 -5 -2 -5 17 0 19 2 27 5 18 2
-10 2 -26 0 -35z m157 38 c4 -5 -3 -7 -14 -4 -12 3 -20 0 -20 -8 0 -7 -3 -10
-6 -6 -9 9 5 27 21 27 8 0 16 -4 19 -9z m73 -38 c-3 -10 -5 -2 -5 17 0 19 2
27 5 18 2 -10 2 -26 0 -35z m20 0 c-3 -10 -5 -2 -5 17 0 19 2 27 5 18 2 -10 2
-26 0 -35z m230 0 c-3 -10 -5 -2 -5 17 0 19 2 27 5 18 2 -10 2 -26 0 -35z
m252 17 c-10 -28 -29 -41 -29 -20 0 6 4 10 9 10 5 0 11 9 14 20 3 11 8 20 11
20 3 0 0 -13 -5 -30z m2266 -5 c1 -14 -2 -22 -5 -19 -3 3 -5 16 -5 29 -1 14 2
22 5 19 3 -3 5 -16 5 -29z m102 -12 c-3 -10 -5 -2 -5 17 0 19 2 27 5 18 2 -10
2 -26 0 -35z m243 37 c0 -5 -6 -7 -14 -4 -10 4 -16 -3 -19 -23 -4 -27 -4 -27
-6 5 -1 26 3 32 19 32 11 0 20 -4 20 -10z m207 1 c16 13 17 13 4 -3 -11 -15
-11 -21 0 -35 13 -17 12 -17 -4 -4 -15 12 -20 12 -26 2 -5 -7 -8 1 -9 21 0 22
2 28 8 18 7 -12 11 -12 27 1z m260 -38 c-3 -10 -5 -2 -5 17 0 19 2 27 5 18 2
-10 2 -26 0 -35z m33 27 c0 -11 -4 -20 -8 -20 -4 0 -8 9 -8 20 0 11 4 20 8 20
4 0 8 -9 8 -20z m344 11 c4 -5 -4 -7 -15 -4 -19 5 -21 3 -17 -20 3 -15 1 -24
-3 -21 -11 6 -12 38 -2 47 9 10 31 9 37 -2z m119 2 c3 -5 -5 -8 -18 -8 -13 0
-21 3 -18 8 2 4 10 7 18 7 8 0 16 -3 18 -7z m56 -23 c6 -18 6 -28 1 -25 -6 4
-10 14 -11 23 0 12 -3 9 -10 -7 -5 -13 -12 -22 -14 -19 -6 6 12 58 19 58 2 0
9 -14 15 -30z m65 21 c4 -5 -4 -7 -15 -4 -19 5 -21 3 -17 -20 3 -15 1 -24 -3
-21 -11 6 -12 38 -2 47 9 10 31 9 37 -2z m28 -21 c-2 -16 -6 -30 -8 -30 -2 0
-4 14 -4 30 0 17 4 30 8 30 5 0 7 -13 4 -30z m-4086 8 c4 -7 3 -8 -4 -4 -7 4
-12 2 -12 -5 0 -7 -3 -10 -6 -6 -6 5 3 27 11 27 2 0 7 -5 11 -12z m238 4 c2
-4 -4 -8 -14 -8 -10 0 -16 4 -14 8 3 4 9 8 14 8 5 0 11 -4 14 -8z m2596 -15
c0 -7 -4 -6 -10 3 -9 13 -10 13 -11 0 -1 -8 -1 -19 1 -25 1 -5 -4 -5 -11 2
-10 10 -9 15 1 27 13 17 30 13 30 -7z m508 -13 c-3 -14 -5 -12 -10 9 -3 19 -2
25 4 19 6 -6 8 -18 6 -28z m182 4 c0 -26 -9 -19 -15 11 -2 12 0 19 6 16 5 -4
9 -16 9 -27z m-3863 -10 c-3 -7 -5 -2 -5 12 0 14 2 19 5 13 2 -7 2 -19 0 -25z
m20 0 c-3 -7 -5 -2 -5 12 0 14 2 19 5 13 2 -7 2 -19 0 -25z m20 0 c-3 -7 -5
-2 -5 12 0 14 2 19 5 13 2 -7 2 -19 0 -25z m363 22 c0 -5 -4 -10 -10 -10 -5 0
-10 5 -10 10 0 6 5 10 10 10 6 0 10 -4 10 -10z m197 -22 c-3 -7 -5 -2 -5 12 0
14 2 19 5 13 2 -7 2 -19 0 -25z m33 22 c0 -5 -5 -10 -11 -10 -5 0 -7 5 -4 10
3 6 8 10 11 10 2 0 4 -4 4 -10z m117 -22 c-3 -7 -5 -2 -5 12 0 14 2 19 5 13 2
-7 2 -19 0 -25z m50 0 c-3 -7 -5 -2 -5 12 0 14 2 19 5 13 2 -7 2 -19 0 -25z
m33 12 c0 -11 -4 -20 -9 -20 -5 0 -7 9 -4 20 3 11 7 20 9 20 2 0 4 -9 4 -20z
m17 -12 c-3 -7 -5 -2 -5 12 0 14 2 19 5 13 2 -7 2 -19 0 -25z m33 22 c0 -5 -5
-10 -11 -10 -5 0 -7 5 -4 10 3 6 8 10 11 10 2 0 4 -4 4 -10z m2107 -22 c-3 -7
-5 -2 -5 12 0 14 2 19 5 13 2 -7 2 -19 0 -25z m50 0 c-3 -7 -5 -2 -5 12 0 14
2 19 5 13 2 -7 2 -19 0 -25z m50 0 c-3 -7 -5 -2 -5 12 0 14 2 19 5 13 2 -7 2
-19 0 -25z m30 0 c-3 -7 -5 -2 -5 12 0 14 2 19 5 13 2 -7 2 -19 0 -25z m89 14
c0 -10 -6 -19 -13 -19 -8 0 -9 6 -2 19 5 10 11 18 12 18 2 0 3 -8 3 -18z m151
-14 c-3 -7 -5 -2 -5 12 0 14 2 19 5 13 2 -7 2 -19 0 -25z m41 12 c-7 -10 -14
-18 -15 -16 -6 6 9 36 18 36 5 0 4 -9 -3 -20z m29 -12 c-3 -7 -5 -2 -5 12 0
14 2 19 5 13 2 -7 2 -19 0 -25z m120 0 c-3 -7 -5 -2 -5 12 0 14 2 19 5 13 2
-7 2 -19 0 -25z m70 0 c-3 -7 -5 -2 -5 12 0 14 2 19 5 13 2 -7 2 -19 0 -25z
m30 0 c-3 -7 -5 -2 -5 12 0 14 2 19 5 13 2 -7 2 -19 0 -25z m56 12 c-3 -11 -7
-20 -9 -20 -2 0 -4 9 -4 20 0 11 4 20 9 20 5 0 7 -9 4 -20z m24 -12 c-3 -7 -5
-2 -5 12 0 14 2 19 5 13 2 -7 2 -19 0 -25z m176 12 c-5 -19 -23 -29 -23 -12 0
7 20 32 26 32 1 0 0 -9 -3 -20z m284 -12 c-3 -7 -5 -2 -5 12 0 14 2 19 5 13 2
-7 2 -19 0 -25z m-4010 0 c-3 -8 -6 -5 -6 6 -1 11 2 17 5 13 3 -3 4 -12 1 -19z
m3980 0 c-3 -8 -6 -5 -6 6 -1 11 2 17 5 13 3 -3 4 -12 1 -19z m80 0 c-3 -8 -6
-5 -6 6 -1 11 2 17 5 13 3 -3 4 -12 1 -19z m41 -3 c-3 -3 -9 2 -12 12 -6 14
-5 15 5 6 7 -7 10 -15 7 -18z m119 3 c-3 -8 -6 -5 -6 6 -1 11 2 17 5 13 3 -3
4 -12 1 -19z m-4747 -238 c12 -7 12 -12 0 -34 -7 -14 -19 -26 -27 -26 -7 0
-18 -9 -25 -19 -9 -15 -15 -17 -25 -9 -19 15 -16 42 8 72 21 27 43 32 69 16z
m750 -5 c0 -6 16 -11 37 -10 36 0 62 -24 26 -26 -16 0 -16 -1 2 -8 13 -6 -1
-8 -42 -8 -54 -1 -63 2 -63 18 0 10 5 21 11 25 8 4 7 9 -2 15 -10 6 -7 8 9 6
12 0 22 -6 22 -12z m2660 -2 c11 -10 20 -25 20 -34 0 -15 -12 -17 -80 -17
l-80 0 0 29 c0 24 4 29 25 29 19 0 25 -5 25 -22 1 -21 2 -21 11 -5 12 20 35
23 42 5 3 -7 6 -3 6 10 1 27 5 27 31 5z m230 -11 c0 -13 2 -14 8 -4 9 13 38
12 60 -1 7 -5 12 -3 13 5 0 8 2 9 5 2 6 -14 -13 -64 -24 -64 -5 0 -7 11 -5 24
4 21 2 24 -17 19 -16 -4 -18 -8 -9 -14 8 -5 1 -7 -18 -7 -24 1 -33 6 -36 22
-4 21 -5 21 -12 -1 -5 -17 -15 -23 -36 -23 -24 0 -29 4 -29 25 0 32 27 33 40
3 l9 -23 0 23 c1 13 7 22 16 22 8 0 15 5 15 11 0 5 5 7 10 4 6 -3 10 -14 10
-23z m469 -27 c0 -18 -2 -17 -11 5 -11 25 -11 25 -15 3 -3 -15 -12 -23 -24
-23 -13 0 -19 7 -20 23 -1 19 -3 17 -15 -10 -13 -32 -39 -48 -28 -19 3 8 1 23
-5 33 -9 17 -11 16 -20 -7 -5 -14 -10 -19 -10 -12 -1 6 -11 11 -23 11 -18 -1
-19 -2 -5 -6 9 -2 15 -8 12 -13 -9 -15 -35 1 -35 20 0 25 18 35 35 20 11 -9
15 -9 15 -1 0 6 15 11 33 11 64 0 77 1 77 11 0 5 9 1 20 -8 11 -10 20 -27 19
-38z m76 30 c35 0 52 5 57 15 4 8 5 -3 1 -25 -7 -51 -10 -55 -36 -54 -21 0
-21 1 -2 9 18 8 17 9 -7 9 -22 1 -28 6 -29 24 l-2 22 -4 -22 c-3 -15 -12 -23
-24 -23 -15 0 -19 7 -18 38 0 21 3 31 7 22 5 -10 22 -15 57 -15z m-3889 3 c5
-8 2 -9 -11 -4 -15 6 -16 4 -4 -10 12 -14 14 -14 26 2 11 16 17 16 33 6 12 -7
20 -8 20 -2 0 13 57 13 65 0 5 -8 11 -7 21 1 11 9 17 9 28 0 11 -9 15 -9 19 1
3 11 8 11 26 0 12 -7 21 -8 21 -2 0 5 9 10 20 10 15 0 20 -6 19 -27 -1 -17 -3
-21 -6 -10 -5 20 -23 23 -23 4 0 -16 -49 -21 -66 -6 -7 6 -19 9 -26 6 -8 -3
-6 -6 5 -6 10 -1 15 -6 12 -11 -4 -7 -12 -7 -24 0 -10 5 -21 6 -25 3 -3 -3 -6
1 -6 10 0 23 -20 22 -21 0 -1 -17 -2 -17 -6 0 -2 9 -9 17 -14 17 -5 0 -9 -8
-9 -17 0 -15 -2 -16 -10 -3 -5 8 -10 10 -10 3 0 -7 -19 -11 -50 -11 -27 -1
-50 3 -50 8 0 5 8 7 18 4 15 -5 15 -4 -2 10 -19 16 -14 36 9 36 8 0 17 -5 21
-12z m384 -13 c0 -14 5 -25 10 -25 6 0 10 -4 10 -9 0 -5 -9 -7 -20 -4 -14 4
-20 14 -20 34 0 16 5 29 10 29 6 0 10 -11 10 -25z m194 13 c5 -10 7 -10 12 0
12 26 22 11 11 -18 -6 -16 -14 -30 -17 -30 -3 0 -11 14 -17 30 -11 29 -1 44
11 18z m2613 -10 l10 -23 7 23 c10 32 26 27 26 -8 0 -30 -16 -36 -47 -17 -6 4
-14 1 -16 -5 -3 -7 -6 2 -6 20 -1 37 11 42 26 10z m383 7 c11 -13 15 -13 22
-3 6 9 8 5 6 -11 -4 -34 -24 -37 -32 -6 -4 15 -13 25 -24 25 -15 0 -15 -2 -2
-10 13 -8 13 -11 1 -19 -11 -7 -10 -10 5 -14 13 -3 11 -5 -8 -6 -25 -1 -28 3
-28 29 0 25 4 30 24 30 13 0 29 -7 36 -15z m510 4 c0 -6 -7 -8 -15 -5 -9 3
-18 -1 -22 -10 -7 -18 5 -33 15 -19 4 6 20 17 35 25 25 12 29 12 37 0 6 -9 10
-10 10 -3 0 19 88 14 100 -5 9 -15 9 -15 10 1 0 27 34 17 38 -11 3 -19 -1 -22
-32 -22 -30 0 -36 4 -37 23 l-2 22 -4 -22 c-3 -15 -12 -23 -24 -23 -13 0 -19
7 -20 23 -2 21 -2 21 -6 1 -3 -18 -12 -21 -68 -22 -61 -1 -65 0 -65 22 0 12 3
26 7 29 11 11 43 8 43 -4z m282 -14 c-2 -19 -2 -19 12 -1 9 11 22 16 31 13 21
-8 19 -27 -2 -28 -16 0 -15 -2 2 -10 16 -7 13 -8 -12 -5 -18 3 -35 1 -38 -4
-11 -19 -35 3 -35 32 0 25 4 29 23 26 15 -2 21 -9 19 -23z m128 -1 c6 -14 10
-26 10 -27 0 -1 -13 -2 -29 -3 -27 -1 -28 0 -17 28 13 35 24 36 36 2z m-4160
1 c0 -8 -6 -15 -12 -15 -9 0 -8 -4 2 -10 12 -8 11 -10 -7 -10 -22 0 -32 27
-16 43 12 13 33 7 33 -8z m320 3 c0 -9 3 -8 10 2 7 12 11 10 19 -10 l10 -25 0
23 c1 28 21 19 21 -10 0 -17 -5 -20 -30 -16 -17 3 -33 1 -36 -3 -2 -5 -11 -6
-19 -2 -15 5 -20 34 -8 46 11 12 33 8 33 -5z m3346 -13 c3 -21 -14 -37 -29
-28 -5 3 -3 9 4 14 10 6 11 9 2 9 -7 0 -13 7 -13 16 0 23 33 13 36 -11z
m-1289 -4 c-4 -18 10 -31 34 -31 17 0 9 40 -8 41 -15 1 -15 2 -2 6 24 6 69
-15 69 -32 0 -9 -4 -14 -9 -10 -17 10 -22 -13 -6 -28 40 -40 -16 -105 -78 -92
-41 9 -59 24 -53 44 3 9 7 28 10 43 4 24 35 77 45 78 2 0 1 -9 -2 -19z m152
-75 c-2 -79 -2 -80 -9 -26 -3 30 -10 67 -14 81 -6 20 -4 26 8 26 13 0 16 -14
15 -81z m-3255 -73 l7 -73 -25 0 c-23 0 -25 3 -21 30 3 17 7 43 9 59 4 20 -3
39 -20 62 -35 48 -30 62 10 25 30 -28 34 -38 40 -103z m150 94 c3 -15 2 -16
-10 -7 -10 9 -17 8 -31 -6 -12 -12 -14 -19 -6 -21 7 -3 9 -11 6 -19 -5 -13 -7
-13 -14 -3 -4 8 -18 14 -30 14 -12 0 -24 6 -26 13 -3 8 4 11 19 10 16 -2 24 3
26 17 4 27 59 29 66 2z m242 -94 c-3 -3 -10 5 -15 18 -7 16 -10 19 -10 7 -1
-9 -5 -19 -11 -23 -5 -3 -4 8 2 26 l11 32 14 -27 c8 -15 12 -30 9 -33z m51 25
c-3 -7 -5 -2 -5 12 0 14 2 19 5 13 2 -7 2 -19 0 -25z m70 -15 c-3 -10 -5 -2
-5 17 0 19 2 27 5 18 2 -10 2 -26 0 -35z m188 37 c3 -6 -1 -7 -9 -4 -18 7 -21
14 -7 14 6 0 13 -4 16 -10z m2709 -32 c6 -4 7 -10 3 -14 -9 -9 -36 25 -36 46
0 10 3 9 11 -5 6 -11 16 -23 22 -27z m24 11 c-1 -25 -3 -28 -10 -14 -5 9 -7
23 -4 31 9 23 15 16 14 -17z m255 -3 c4 4 7 2 7 -4 0 -23 -17 -20 -29 4 -15
33 -14 45 2 16 7 -12 16 -19 20 -16z m314 3 c1 -22 1 -22 -4 -1 -5 26 -23 30
-23 5 0 -9 -3 -14 -6 -10 -11 10 5 39 19 35 6 -3 13 -15 14 -29z m38 21 c-3
-5 -1 -10 4 -10 6 0 10 -10 10 -22 -1 -17 -2 -19 -6 -5 -2 9 -9 17 -15 17 -5
0 -8 -7 -4 -15 3 -8 1 -15 -4 -15 -14 0 -12 34 2 48 15 15 21 16 13 2z m69
-32 c6 -4 7 -10 3 -14 -9 -9 -36 25 -36 46 0 10 3 9 11 -5 6 -11 16 -23 22
-27z m25 10 c0 -31 -1 -31 -10 -10 -5 13 -7 28 -3 33 10 16 14 9 13 -23z
m-646 7 c-3 -9 -8 -14 -10 -11 -3 3 -2 9 2 15 9 16 15 13 8 -4z m239 -12 c-3
-16 -7 -22 -10 -15 -4 13 4 42 11 42 2 0 2 -12 -1 -27z m546 2 c-3 -3 -9 2
-12 12 -6 14 -5 15 5 6 7 -7 10 -15 7 -18z m-3855 -5 c3 -11 1 -18 -4 -14 -5
3 -9 12 -9 20 0 20 7 17 13 -6z m53 -5 c1 -8 -2 -13 -7 -9 -5 3 -9 12 -9 21 0
19 13 9 16 -12z m71 5 c-1 -12 -5 -16 -10 -11 -5 5 -6 14 -3 20 11 16 15 13
13 -9z m83 10 c0 -5 -4 -10 -10 -10 -5 0 -10 5 -10 10 0 6 5 10 10 10 6 0 10
-4 10 -10z m2994 -14 c-6 -16 -24 -13 -24 5 0 6 5 7 10 4 6 -3 10 -1 10 6 0 7
2 10 5 7 3 -3 3 -13 -1 -22z m133 -8 c-3 -7 -5 -2 -5 12 0 14 2 19 5 13 2 -7
2 -19 0 -25z m20 0 c-3 -7 -5 -2 -5 12 0 14 2 19 5 13 2 -7 2 -19 0 -25z m30
0 c-3 -7 -5 -2 -5 12 0 14 2 19 5 13 2 -7 2 -19 0 -25z m391 -4 c-4 -3 -12 5
-18 18 -12 22 -12 22 6 6 10 -10 15 -20 12 -24z m29 4 c-3 -7 -5 -2 -5 12 0
14 2 19 5 13 2 -7 2 -19 0 -25z m103 20 c0 -9 4 -8 10 2 5 8 10 11 10 5 0 -5
-4 -15 -8 -22 -6 -9 -11 -7 -20 7 -7 12 -8 20 -2 20 5 0 10 -6 10 -12z m-4180
-8 c0 -5 -5 -10 -11 -10 -5 0 -7 5 -4 10 3 6 8 10 11 10 2 0 4 -4 4 -10z m550
6 c0 -2 -8 -10 -17 -17 -16 -13 -17 -12 -4 4 13 16 21 21 21 13z m47 -18 c-3
-8 -6 -5 -6 6 -1 11 2 17 5 13 3 -3 4 -12 1 -19z m3510 7 c0 -8 -4 -12 -9 -9
-4 3 -8 9 -8 15 0 5 4 9 8 9 5 0 9 -7 9 -15z m-3837 -257 c0 -14 3 -18 8 -11
9 14 62 12 62 -2 0 -7 3 -7 8 0 4 6 15 11 25 11 14 2 16 -3 11 -20 -9 -30 -14
-33 -24 -16 -7 10 -10 11 -10 3 0 -20 -20 -15 -21 5 -1 16 -2 16 -6 0 -3 -13
-14 -17 -39 -16 -29 1 -34 5 -34 25 0 15 -6 23 -16 23 -14 0 -14 -3 -4 -15 10
-12 9 -15 -4 -15 -10 0 -14 -4 -11 -10 3 -5 1 -10 -4 -10 -6 0 -11 13 -11 29
0 25 5 30 28 34 15 2 30 5 35 6 4 0 7 -9 7 -21z m3521 8 c-13 -5 -21 -18 -21
-33 0 -12 -4 -23 -10 -23 -5 0 -10 11 -10 25 0 16 -6 25 -16 25 -13 0 -15 -8
-12 -35 5 -40 -7 -47 -16 -10 -11 43 6 60 59 60 37 1 42 -1 26 -9z m-523 -24
c9 -27 8 -29 -19 -29 -33 0 -32 -1 -17 32 15 32 24 32 36 -3z m84 6 c-2 -10 2
-18 8 -18 5 0 10 6 10 14 0 10 11 14 35 13 26 -1 34 -5 30 -15 -3 -7 -5 -17
-5 -22 0 -11 -49 -19 -56 -9 -2 5 -18 6 -34 2 -28 -5 -30 -4 -30 26 0 28 3 32
23 29 15 -2 21 -9 19 -20z m164 11 c4 -8 -1 -9 -17 -5 -23 7 -23 6 -5 -8 17
-14 20 -14 32 2 11 14 16 15 33 5 15 -10 21 -10 24 0 3 9 9 9 25 0 13 -8 23
-9 27 -3 15 24 35 9 35 -25 0 -30 -3 -35 -22 -35 -19 0 -20 2 -8 10 13 9 13
10 0 11 -8 1 -18 1 -22 0 -5 0 -8 6 -8 14 0 8 -4 15 -10 15 -5 0 -10 -7 -10
-17 0 -9 -3 -13 -6 -10 -4 3 -15 2 -25 -3 -12 -7 -20 -7 -24 0 -4 6 -13 7 -24
1 -10 -6 -23 -6 -32 0 -11 7 -10 9 6 9 18 1 19 1 3 11 -10 5 -18 17 -18 24 0
17 36 20 46 4z m464 -29 c0 -16 -3 -31 -8 -34 -4 -2 -7 13 -7 34 0 21 3 36 7
34 5 -3 8 -18 8 -34z m-3464 3 c4 -22 -21 -40 -31 -23 -4 6 0 10 7 10 9 0 9 3
-2 10 -21 14 -30 12 -30 -5 0 -17 -55 -22 -64 -6 -16 25 6 38 61 37 49 -1 56
-4 59 -23z m3412 14 c7 -5 12 -3 12 4 0 7 3 10 6 6 9 -8 -6 -67 -17 -67 -5 0
-9 11 -9 25 0 14 -5 25 -11 25 -5 0 -7 -5 -3 -11 8 -13 -15 -30 -29 -22 -5 3
-4 9 3 13 8 5 7 9 -4 13 -9 4 -16 1 -16 -5 0 -11 -29 -37 -42 -38 -3 0 -4 10
-2 23 2 12 2 16 -2 10 -9 -20 -24 -15 -24 8 0 15 5 19 15 15 8 -3 15 -1 15 3
0 11 90 9 108 -2z m-3980 -32 c-3 -3 -9 2 -12 12 -6 14 -5 15 5 6 7 -7 10 -15
7 -18z m-8 -65 c-8 -5 -17 -7 -19 -4 -3 3 1 9 9 14 8 5 17 7 19 4 3 -3 -1 -9
-9 -14z m-95 -10 c60 0 69 -7 83 -70 l10 -45 1 38 c1 20 5 37 11 37 5 0 7 8 4
18 -5 15 -4 15 8 1 7 -8 32 -24 56 -34 23 -10 42 -23 42 -28 0 -4 5 -5 12 -1
8 5 9 2 5 -9 -3 -10 -2 -17 4 -17 6 0 7 -4 4 -10 -4 -6 -67 -10 -156 -10
l-149 0 1 78 c0 42 3 71 6 65 3 -8 25 -13 58 -13z m395 -40 c6 0 8 -5 4 -11
-4 -8 -10 -5 -17 7 -10 17 -11 17 -18 -1 -6 -15 -7 -12 -4 10 5 42 5 43 15 18
5 -13 14 -23 20 -23z m29 8 c0 -31 -1 -31 -10 -10 -5 13 -7 28 -3 33 10 16 14
9 13 -23z m215 23 c4 -5 -4 -7 -15 -4 -19 5 -21 3 -17 -20 3 -15 1 -24 -3 -21
-11 6 -12 38 -2 47 9 10 31 9 37 -2z m283 -38 c-3 -10 -5 -2 -5 17 0 19 2 27
5 18 2 -10 2 -26 0 -35z m50 0 c-3 -10 -5 -2 -5 17 0 19 2 27 5 18 2 -10 2
-26 0 -35z m2447 38 c4 -5 -4 -7 -16 -5 l-23 5 23 -17 c12 -9 22 -20 22 -25 0
-5 -11 1 -25 13 -13 11 -22 25 -19 30 7 11 31 10 38 -1z m23 -38 c-3 -10 -5
-2 -5 17 0 19 2 27 5 18 2 -10 2 -26 0 -35z m100 0 c-3 -10 -5 -2 -5 17 0 19
2 27 5 18 2 -10 2 -26 0 -35z m460 0 c-3 -10 -5 -2 -5 17 0 19 2 27 5 18 2
-10 2 -26 0 -35z m200 0 c-3 -10 -5 -2 -5 17 0 19 2 27 5 18 2 -10 2 -26 0
-35z m160 0 c-3 -10 -5 -2 -5 17 0 19 2 27 5 18 2 -10 2 -26 0 -35z m31 6 c-3
-20 -5 -19 -9 9 -3 20 -2 29 4 23 5 -5 7 -19 5 -32z m209 -6 c-3 -10 -5 -2 -5
17 0 19 2 27 5 18 2 -10 2 -26 0 -35z m140 0 c-3 -10 -5 -2 -5 17 0 19 2 27 5
18 2 -10 2 -26 0 -35z m68 5 c-10 -13 -14 -16 -11 -8 3 8 9 24 13 35 4 11 8
14 11 7 2 -6 -4 -22 -13 -34z m39 8 c-3 -15 -8 -25 -11 -23 -2 3 -1 17 3 31 3
15 8 25 11 23 2 -3 1 -17 -3 -31z m-4334 1 c0 -7 -4 -6 -10 3 -8 12 -10 12
-10 1 0 -8 -3 -12 -6 -8 -9 9 6 28 17 22 5 -4 9 -12 9 -18z m296 11 c4 -7 3
-8 -4 -4 -7 4 -12 2 -12 -5 0 -7 -3 -10 -6 -6 -6 5 3 27 11 27 2 0 7 -5 11
-12z m332 -13 c-3 -3 -9 2 -12 12 -6 14 -5 15 5 6 7 -7 10 -15 7 -18z m2445
12 c4 3 7 -5 6 -18 0 -13 -3 -18 -6 -10 -5 11 -7 11 -15 0 -8 -11 -9 -11 -5 2
3 9 0 23 -6 30 -10 11 -9 11 4 1 9 -6 19 -9 22 -5z m35 -12 c-3 -3 -9 2 -12
12 -6 14 -5 15 5 6 7 -7 10 -15 7 -18z m88 -7 c-18 -26 -22 -17 -5 14 6 11 13
17 16 15 3 -3 -2 -16 -11 -29z m244 22 c0 -5 -4 -10 -10 -10 -5 0 -10 5 -10
10 0 6 5 10 10 10 6 0 10 -4 10 -10z m183 -5 c-3 -9 -8 -14 -10 -11 -3 3 -2 9
2 15 9 16 15 13 8 -4z m513 3 c4 -7 3 -8 -4 -4 -7 4 -12 2 -12 -5 0 -7 -3 -10
-6 -6 -6 5 3 27 11 27 2 0 7 -5 11 -12z m-3975 -12 c11 6 11 -4 -1 -31 -7 -16
-9 -17 -9 -3 -1 9 -3 22 -4 30 -2 7 -2 10 0 5 3 -4 9 -5 14 -1z m199 4 c0 -5
-4 -10 -10 -10 -5 0 -10 5 -10 10 0 6 5 10 10 10 6 0 10 -4 10 -10z m117 -22
c-3 -7 -5 -2 -5 12 0 14 2 19 5 13 2 -7 2 -19 0 -25z m30 0 c-3 -7 -5 -2 -5
12 0 14 2 19 5 13 2 -7 2 -19 0 -25z m31 1 c-3 -8 -7 -3 -11 10 -4 17 -3 21 5
13 5 -5 8 -16 6 -23z m32 -4 c0 -5 -5 -3 -10 5 -5 8 -10 20 -10 25 0 6 5 3 10
-5 5 -8 10 -19 10 -25z m83 15 c-3 -11 -7 -20 -9 -20 -2 0 -4 9 -4 20 0 11 4
20 9 20 5 0 7 -9 4 -20z m2304 -12 c-3 -7 -5 -2 -5 12 0 14 2 19 5 13 2 -7 2
-19 0 -25z m53 12 c0 -11 -4 -20 -9 -20 -5 0 -7 9 -4 20 3 11 7 20 9 20 2 0 4
-9 4 -20z m217 -12 c-3 -7 -5 -2 -5 12 0 14 2 19 5 13 2 -7 2 -19 0 -25z m133
22 c0 -5 -4 -10 -10 -10 -5 0 -10 5 -10 10 0 6 5 10 10 10 6 0 10 -4 10 -10z
m96 -27 c-11 -11 -17 4 -9 23 7 18 8 18 11 1 2 -10 1 -21 -2 -24z m61 5 c-3
-7 -5 -2 -5 12 0 14 2 19 5 13 2 -7 2 -19 0 -25z m20 0 c-3 -7 -5 -2 -5 12 0
14 2 19 5 13 2 -7 2 -19 0 -25z m204 18 c5 3 9 1 9 -5 0 -5 -4 -13 -10 -16 -5
-3 -10 -4 -10 -1 0 2 -2 10 -3 18 -2 7 -2 10 0 5 3 -4 9 -5 14 -1z m162 -6 c3
-11 1 -18 -4 -14 -5 3 -9 12 -9 20 0 20 7 17 13 -6z m44 -12 c-3 -7 -5 -2 -5
12 0 14 2 19 5 13 2 -7 2 -19 0 -25z m50 0 c-3 -7 -5 -2 -5 12 0 14 2 19 5 13
2 -7 2 -19 0 -25z m30 0 c-3 -7 -5 -2 -5 12 0 14 2 19 5 13 2 -7 2 -19 0 -25z
m160 0 c-3 -7 -5 -2 -5 12 0 14 2 19 5 13 2 -7 2 -19 0 -25z m170 0 c-3 -7 -5
-2 -5 12 0 14 2 19 5 13 2 -7 2 -19 0 -25z m30 0 c-3 -7 -5 -2 -5 12 0 14 2
19 5 13 2 -7 2 -19 0 -25z m-3790 0 c-3 -8 -6 -5 -6 6 -1 11 2 17 5 13 3 -3 4
-12 1 -19z m2537 6 c3 -8 2 -12 -4 -9 -6 3 -10 10 -10 16 0 14 7 11 14 -7z
m156 -9 c0 -8 -3 -16 -7 -18 -5 -3 -8 5 -8 18 0 13 3 21 8 18 4 -2 7 -10 7
-18z m130 4 c0 -6 -4 -7 -10 -4 -5 3 -10 11 -10 16 0 6 5 7 10 4 6 -3 10 -11
10 -16z m357 6 c0 -8 -4 -15 -9 -15 -4 0 -8 7 -8 15 0 8 4 15 8 15 5 0 9 -7 9
-15z m-3737 -5 c0 -5 -4 -10 -10 -10 -5 0 -10 5 -10 10 0 6 5 10 10 10 6 0 10
-4 10 -10z m2710 -345 l0 -155 -45 0 c-43 0 -60 12 -32 23 9 4 9 6 -1 6 -7 1
-15 -6 -18 -14 -5 -11 -22 -15 -64 -15 -57 0 -85 14 -60 30 9 5 9 9 1 14 -23
15 50 106 85 106 7 0 19 -19 25 -42 14 -47 29 -72 29 -46 0 9 7 18 15 22 19 7
19 40 1 58 -8 8 -17 39 -20 69 -3 30 -7 62 -8 71 -2 12 -10 17 -28 16 -30 -3
-43 -17 -73 -78 -12 -25 -32 -59 -44 -77 -13 -17 -23 -36 -23 -42 0 -6 -7 -8
-15 -5 -9 4 -18 -2 -24 -17 -7 -17 -10 13 -10 104 l-1 127 155 0 155 0 0 -155z
m-3187 100 c-4 -11 -1 -13 11 -9 10 4 26 -5 45 -25 19 -20 42 -33 70 -37 37
-6 41 -10 41 -34 0 -22 -7 -31 -35 -44 -19 -9 -37 -21 -40 -26 -8 -13 -55 -13
-55 1 0 5 -4 7 -10 4 -5 -3 -10 1 -10 11 0 9 -8 23 -17 31 -17 13 -17 14 2 9
25 -7 58 10 35 18 -8 2 -40 7 -70 9 -68 6 -105 -14 -95 -50 3 -13 1 -23 -5
-23 -5 0 -10 23 -10 50 0 45 2 50 23 50 28 1 74 26 67 37 -3 4 5 9 18 11 14 2
22 10 22 23 0 11 4 18 10 14 5 -3 7 -12 3 -20z m393 -14 c14 11 34 4 34 -12 0
-5 -8 -9 -17 -10 -15 0 -15 -2 2 -9 16 -6 12 -8 -17 -8 -31 1 -38 5 -39 22 -2
20 -2 19 -6 -1 -2 -13 -8 -23 -12 -23 -5 0 -6 11 -3 25 3 18 0 25 -12 25 -11
0 -16 -10 -18 -32 l-1 -33 -4 33 c-2 17 -10 33 -16 33 -7 1 4 4 23 8 26 5 40
2 54 -11 14 -13 23 -15 32 -7z m314 -6 c0 -28 -4 -35 -20 -35 -11 0 -20 6 -20
13 0 8 -4 7 -10 -3 -8 -13 -10 -12 -10 3 0 9 -4 17 -9 17 -5 0 -12 -8 -14 -17
-3 -11 -5 -7 -6 10 -1 20 4 27 18 27 11 0 21 -5 23 -11 2 -5 12 -1 23 10 26
26 25 26 25 -14z m103 -6 c-6 -32 -7 -33 -13 -9 -4 14 -2 31 3 38 15 19 18 9
10 -29z m104 -11 c-2 -13 -4 -5 -4 17 -1 22 1 32 4 23 2 -10 2 -28 0 -40z m28
11 c0 -16 -3 -29 -7 -29 -5 0 -8 17 -8 37 0 20 3 33 8 29 4 -4 7 -21 7 -37z
m732 -11 c-2 -13 -4 -5 -4 17 -1 22 1 32 4 23 2 -10 2 -28 0 -40z m1392 26
c-6 -7 -8 -18 -5 -23 4 -5 2 -12 -3 -15 -5 -3 -12 1 -15 10 -3 8 -10 12 -16 9
-15 -9 -12 2 6 24 10 11 23 17 31 14 10 -4 11 -9 2 -19z m411 4 c0 -17 3 -20
9 -9 10 15 41 8 41 -9 0 -5 -8 -10 -17 -11 -16 0 -16 -1 1 -8 17 -7 18 -8 3
-14 -9 -3 -19 -2 -22 4 -4 5 -11 7 -16 3 -14 -8 -78 -11 -89 -4 -13 8 0 50 15
50 7 0 15 -5 17 -11 2 -5 12 -1 23 10 26 26 35 26 35 -1z m-2974 0 c5 -8 2 -9
-9 -5 -10 3 -17 2 -17 -2 0 -17 25 -19 42 -3 14 11 21 12 32 3 11 -9 15 -9 19
1 3 7 6 3 6 -9 1 -13 5 -23 10 -23 5 0 12 10 14 23 4 20 4 19 6 -4 1 -25 -23
-47 -33 -31 -5 8 -70 7 -83 -1 -5 -3 -15 -2 -23 4 -12 7 -11 9 5 9 18 1 19 1
3 11 -10 5 -18 17 -18 24 0 18 36 20 46 3z m394 2 c0 -5 -8 -7 -17 -3 -17 6
-17 5 0 -14 23 -27 22 -33 -10 -32 -24 0 -25 2 -8 8 18 7 18 8 1 18 -11 6 -16
15 -12 22 9 13 46 15 46 1z m295 -30 c0 -32 -2 -37 -11 -25 -11 15 -7 65 5 65
3 0 6 -18 6 -40z m93 27 c8 -6 12 -6 12 2 0 6 16 11 35 11 33 0 35 -2 35 -31
0 -27 -2 -30 -15 -19 -10 9 -15 9 -15 1 0 -25 -20 -9 -21 17 l-1 27 -11 -27
c-13 -34 -23 -35 -31 -5 -7 29 -49 30 -55 2 -2 -14 2 -17 18 -12 12 3 21 1 21
-4 0 -5 -11 -9 -25 -9 -20 0 -25 5 -25 23 0 13 3 27 6 30 10 9 57 5 72 -6z
m112 -17 c0 -16 -4 -30 -10 -30 -5 0 -10 14 -10 30 0 17 5 30 10 30 6 0 10
-13 10 -30z m38 -20 c14 0 15 -2 2 -9 -21 -14 -30 -4 -29 32 2 30 2 31 6 5 3
-18 11 -28 21 -28z m88 12 c1 -26 -1 -30 -12 -21 -7 6 -18 8 -24 4 -6 -4 -10
6 -10 25 0 27 3 31 22 28 18 -2 23 -10 24 -36z m234 -2 c0 -16 -3 -31 -8 -34
-4 -2 -7 13 -7 34 0 21 3 36 7 34 5 -3 8 -18 8 -34z m1566 25 c4 -8 10 -15 15
-15 5 0 9 7 9 15 0 8 5 15 10 15 6 0 10 -15 10 -32 0 -23 -3 -29 -9 -19 -7 11
-9 11 -14 0 -4 -12 -7 -11 -16 1 -7 10 -11 11 -11 3 0 -7 -4 -13 -10 -13 -5 0
-10 14 -10 30 0 31 16 41 26 15z m259 5 c-18 -7 -19 -8 -2 -15 9 -4 24 -2 32
5 12 10 18 10 30 0 10 -9 15 -9 15 -1 0 6 6 11 14 11 11 0 12 -5 3 -24 -7 -14
-15 -20 -18 -14 -4 5 -9 3 -13 -7 -5 -15 -8 -15 -36 2 -27 16 -32 16 -40 3 -7
-11 -10 -7 -10 18 0 27 4 32 23 31 21 0 21 -1 2 -9z m155 -5 c0 -8 4 -15 9
-15 5 0 11 7 15 15 8 21 26 19 26 -2 0 -15 2 -15 9 -4 10 15 41 8 41 -9 0 -5
-8 -10 -17 -11 -16 0 -16 -1 1 -8 17 -7 18 -8 3 -14 -9 -3 -19 -2 -22 3 -3 5
-12 7 -20 3 -9 -3 -15 1 -15 8 0 11 -3 11 -10 -1 -9 -13 -11 -13 -20 0 -7 11
-10 11 -10 2 0 -7 -4 -11 -9 -8 -10 7 -2 56 10 56 5 0 9 -7 9 -15z m-2952 -21
c4 -25 -22 -38 -37 -20 -15 18 -3 48 18 44 9 -2 17 -13 19 -24z m360 9 c2 -7
-4 -13 -15 -13 -15 0 -16 -2 -3 -11 12 -9 11 -10 -6 -6 -12 2 -28 0 -37 -4 -9
-6 -18 -5 -22 0 -3 6 -12 8 -20 4 -10 -3 -15 2 -16 18 -2 22 -2 23 -6 3 -2
-12 -14 -25 -26 -28 -26 -6 -50 14 -42 36 8 20 186 20 193 1z m510 -10 c2 -13
-1 -23 -7 -23 -6 0 -12 10 -12 23 l-2 22 -4 -22 c-2 -13 -9 -23 -14 -23 -5 0
-10 10 -10 23 -2 21 -2 21 -6 1 -5 -29 -50 -38 -63 -14 -14 26 5 37 63 36 46
-1 52 -4 55 -23z m67 0 c0 -31 -30 -31 -31 0 -1 15 4 23 15 23 10 0 16 -9 16
-23z m-1744 -105 l34 -32 -32 19 c-18 11 -35 25 -37 32 -8 20 -1 16 35 -19z
m3134 -6 c-8 -8 -25 10 -19 20 4 6 9 5 15 -3 4 -7 6 -15 4 -17z m-2787 -6 c2
-10 0 -22 -6 -28 -6 -6 -8 0 -5 16 4 19 1 26 -11 26 -11 0 -16 -9 -17 -27 -1
-18 -3 -22 -6 -10 -7 27 5 49 24 45 10 -2 19 -12 21 -22z m207 -12 c1 -13 -3
-24 -7 -24 -5 0 -7 13 -6 30 3 34 13 30 13 -6z m122 14 c-3 -8 -6 -5 -6 6 -1
11 2 17 5 13 3 -3 4 -12 1 -19z m133 -8 c0 -16 -2 -30 -4 -30 -2 0 -6 14 -8
30 -3 17 -1 30 4 30 4 0 8 -13 8 -30z m393 15 c-3 -9 -8 -14 -10 -11 -3 3 -2
9 2 15 9 16 15 13 8 -4z m107 5 c0 -5 -5 -10 -11 -10 -5 0 -7 5 -4 10 3 6 8
10 11 10 2 0 4 -4 4 -10z m75 0 c3 -6 -1 -7 -9 -4 -9 3 -16 2 -16 -4 0 -5 7
-12 15 -16 8 -3 15 -10 15 -16 0 -5 -9 -2 -20 7 -11 10 -20 23 -20 30 0 15 26
17 35 3z m354 1 c10 -7 7 -9 -12 -8 -14 1 -23 5 -20 10 6 9 15 9 32 -2z m47
-28 c-8 -15 -15 -22 -16 -15 0 14 22 53 28 47 2 -2 -3 -16 -12 -32z m38 11
c-3 -35 -14 -44 -14 -12 0 21 7 38 15 38 1 0 1 -12 -1 -26z m28 -10 c-9 -16
-10 -14 -9 8 1 15 6 23 11 18 4 -4 4 -16 -2 -26z m25 -11 c-3 -10 -5 -2 -5 17
0 19 2 27 5 18 2 -10 2 -26 0 -35z m128 15 c1 -15 -3 -24 -7 -21 -5 2 -6 13
-3 24 4 10 2 19 -4 19 -5 0 -12 -12 -14 -27 -4 -26 -4 -25 -6 5 -1 27 2 33 17
30 11 -2 17 -13 17 -30z m1353 -5 c9 -7 12 -16 9 -20 -9 -9 -37 27 -36 47 1
13 1 13 6 0 3 -8 12 -21 21 -27z m32 5 c-1 -26 -3 -30 -10 -16 -6 9 -7 23 -4
32 9 25 14 19 14 -16z m167 -15 c-3 -10 -5 -2 -5 17 0 19 2 27 5 18 2 -10 2
-26 0 -35z m294 6 c-9 -23 -10 -22 -10 11 -1 23 2 31 9 24 7 -7 7 -19 1 -35z
m41 9 c-8 -8 -9 -4 -5 13 4 13 8 18 11 10 2 -7 -1 -18 -6 -23z m115 10 c-3 -8
-6 -5 -6 6 -1 11 2 17 5 13 3 -3 4 -12 1 -19z m255 -20 c-10 -22 -11 -21 -11
12 -1 26 2 31 11 22 8 -8 8 -17 0 -34z m41 7 c-10 -12 -22 -21 -27 -18 -5 3
-1 10 8 15 9 5 16 16 16 24 0 8 5 12 10 9 6 -4 3 -15 -7 -30z m-3303 -17 c0
-4 -9 0 -20 9 -11 10 -20 21 -20 25 0 4 9 0 20 -9 11 -10 20 -21 20 -25z m628
17 c-3 -3 -9 2 -12 12 -6 14 -5 15 5 6 7 -7 10 -15 7 -18z m-1161 -17 c-3 -7
-5 -2 -5 12 0 14 2 19 5 13 2 -7 2 -19 0 -25z m30 0 c-3 -7 -5 -2 -5 12 0 14
2 19 5 13 2 -7 2 -19 0 -25z m26 12 c-3 -11 -7 -20 -9 -20 -2 0 -4 9 -4 20 0
11 4 20 9 20 5 0 7 -9 4 -20z m133 -1 c0 -13 -4 -14 -18 -5 -10 6 -18 13 -18
16 0 3 8 6 18 6 10 0 18 -8 18 -17z m84 11 c0 -5 -4 -10 -10 -10 -5 0 -10 5
-10 10 0 6 5 10 10 10 6 0 10 -4 10 -10z m127 -22 c-3 -7 -5 -2 -5 12 0 14 2
19 5 13 2 -7 2 -19 0 -25z m30 12 c-1 -12 -5 -16 -10 -11 -5 5 -6 14 -3 20 11
16 15 13 13 -9z m120 -12 c-3 -7 -5 -2 -5 12 0 14 2 19 5 13 2 -7 2 -19 0 -25z
m80 0 c-3 -7 -5 -2 -5 12 0 14 2 19 5 13 2 -7 2 -19 0 -25z m150 0 c-3 -7 -5
-2 -5 12 0 14 2 19 5 13 2 -7 2 -19 0 -25z m30 0 c-3 -7 -5 -2 -5 12 0 14 2
19 5 13 2 -7 2 -19 0 -25z m130 0 c-3 -7 -5 -2 -5 12 0 14 2 19 5 13 2 -7 2
-19 0 -25z m103 28 c0 -3 -4 -8 -10 -11 -5 -3 -10 -1 -10 4 0 6 5 11 10 11 6
0 10 -2 10 -4z m17 -28 c-3 -7 -5 -2 -5 12 0 14 2 19 5 13 2 -7 2 -19 0 -25z
m550 0 c-3 -7 -5 -2 -5 12 0 14 2 19 5 13 2 -7 2 -19 0 -25z m30 0 c-3 -7 -5
-2 -5 12 0 14 2 19 5 13 2 -7 2 -19 0 -25z m30 0 c-3 -7 -5 -2 -5 12 0 14 2
19 5 13 2 -7 2 -19 0 -25z m20 0 c-3 -7 -5 -2 -5 12 0 14 2 19 5 13 2 -7 2
-19 0 -25z m49 12 c0 -9 -6 -17 -13 -17 -7 0 -13 8 -13 17 0 9 6 17 13 17 7 0
13 -8 13 -17z m31 -12 c-3 -7 -5 -2 -5 12 0 14 2 19 5 13 2 -7 2 -19 0 -25z
m1280 0 c-3 -7 -5 -2 -5 12 0 14 2 19 5 13 2 -7 2 -19 0 -25z m90 0 c-3 -7 -5
-2 -5 12 0 14 2 19 5 13 2 -7 2 -19 0 -25z m30 0 c-3 -7 -5 -2 -5 12 0 14 2
19 5 13 2 -7 2 -19 0 -25z m50 0 c-3 -7 -5 -2 -5 12 0 14 2 19 5 13 2 -7 2
-19 0 -25z m29 12 c0 -12 -4 -16 -9 -11 -5 5 -6 14 -3 20 10 15 12 14 12 -9z
m244 0 c0 -11 -4 -20 -9 -20 -7 0 -8 17 -2 38 4 10 11 -2 11 -18z m17 -12 c-3
-7 -5 -2 -5 12 0 14 2 19 5 13 2 -7 2 -19 0 -25z m50 0 c-3 -7 -5 -2 -5 12 0
14 2 19 5 13 2 -7 2 -19 0 -25z m83 22 c0 -5 -2 -10 -4 -10 -3 0 -8 5 -11 10
-3 6 -1 10 4 10 6 0 11 -4 11 -10z m37 -22 c-3 -7 -5 -2 -5 12 0 14 2 19 5 13
2 -7 2 -19 0 -25z m190 0 c-3 -7 -5 -2 -5 12 0 14 2 19 5 13 2 -7 2 -19 0 -25z
m-4407 12 c0 -5 -5 -10 -11 -10 -5 0 -7 5 -4 10 3 6 8 10 11 10 2 0 4 -4 4
-10z m1677 -5 c0 -8 -4 -12 -9 -9 -4 3 -8 9 -8 15 0 5 4 9 8 9 5 0 9 -7 9 -15z
m430 0 c0 -8 -4 -12 -9 -9 -4 3 -8 9 -8 15 0 5 4 9 8 9 5 0 9 -7 9 -15z m1700
-27 c-3 -8 -6 -5 -6 6 -1 11 2 17 5 13 3 -3 4 -12 1 -19z m-772 -38 c-3 -5
-17 -10 -31 -10 -13 0 -24 5 -24 10 0 6 14 10 31 10 17 0 28 -4 24 -10z
m-3045 -891 c9 -15 8 -24 -1 -35 -9 -11 -9 -21 -1 -39 10 -20 9 -25 -3 -25 -8
0 -20 9 -27 20 -7 11 -16 20 -20 20 -5 0 -8 -9 -8 -20 0 -11 -7 -20 -15 -20
-12 0 -15 13 -15 60 l0 60 40 0 c29 0 42 -5 50 -21z m852 -1 c2 -13 1 -39 0
-60 -3 -29 -9 -38 -29 -43 -32 -8 -53 10 -53 46 0 29 24 50 48 42 7 -3 12 4
12 16 0 28 18 27 22 -1z m197 -37 c-2 -55 -4 -60 -28 -64 -38 -7 -61 9 -61 43
0 30 24 51 48 43 7 -3 12 4 12 16 0 12 6 21 16 21 12 0 15 -11 13 -59z m181
25 c0 -18 3 -48 6 -65 6 -26 4 -30 -10 -25 -12 5 -16 20 -16 65 0 33 4 59 10
59 6 0 10 -15 10 -34z m60 13 c0 -11 4 -17 10 -14 17 11 40 -15 40 -45 0 -35
-18 -50 -52 -43 -27 5 -28 8 -28 64 0 46 3 59 15 59 8 0 15 -9 15 -21z m-1209
-19 c30 -17 25 -50 -8 -51 -24 -2 -25 -2 -5 -6 12 -2 22 -9 22 -14 0 -16 -27
-21 -49 -9 -26 14 -29 65 -3 79 21 13 20 13 43 1z m83 4 c23 -9 20 -24 -4 -24
-13 0 -20 -7 -20 -20 0 -13 7 -20 20 -20 11 0 20 -5 20 -10 0 -17 -27 -22 -49
-10 -26 14 -29 65 -3 79 21 13 17 12 36 5z m100 -10 c9 -8 16 -24 16 -34 0
-22 -25 -50 -45 -50 -14 0 -45 37 -45 52 0 11 38 48 49 48 5 0 17 -7 25 -16z
m144 3 c18 -12 16 -77 -3 -77 -10 0 -15 10 -15 30 0 17 -4 30 -10 30 -5 0 -10
-13 -10 -30 0 -20 -5 -30 -15 -30 -10 0 -15 10 -15 30 0 17 -4 30 -10 30 -5 0
-10 -13 -10 -30 0 -20 -5 -30 -15 -30 -11 0 -15 11 -15 39 0 33 4 40 23 43 36
6 81 3 95 -5z m146 2 c2 -2 6 -21 9 -41 4 -29 2 -38 -9 -38 -9 0 -14 11 -14
30 0 17 -5 30 -10 30 -6 0 -13 -13 -16 -30 -4 -16 -10 -30 -15 -30 -5 0 -9 14
-9 30 0 17 -4 30 -10 30 -5 0 -10 -13 -10 -30 0 -20 -5 -30 -15 -30 -11 0 -15
11 -15 39 0 33 4 40 23 43 29 4 86 2 91 -3z m90 -5 c25 -24 20 -44 -11 -45
-24 -2 -25 -2 -5 -6 12 -2 22 -8 22 -13 0 -14 -31 -20 -51 -10 -25 14 -26 65
-1 79 23 14 28 14 46 -5z m90 10 c11 -4 16 -19 16 -45 0 -44 -17 -53 -22 -12
-4 39 -28 42 -28 4 0 -21 -5 -31 -15 -31 -11 0 -15 11 -15 39 0 33 4 40 23 44
12 2 23 5 24 6 1 0 8 -2 17 -5z m197 -4 c30 -17 25 -50 -8 -51 -25 -2 -25 -2
-5 -6 25 -5 25 -26 0 -31 -20 -4 -48 24 -48 48 0 17 24 50 36 50 3 0 14 -5 25
-10z m243 -6 c9 -8 16 -28 16 -44 0 -22 -5 -29 -27 -33 -32 -6 -59 14 -50 37
4 9 17 16 29 17 14 0 17 3 8 6 -46 15 -46 15 -25 23 29 12 32 12 49 -6z m394
3 c17 -11 16 -77 -2 -77 -7 0 -13 10 -12 23 1 32 -18 37 -22 5 -4 -35 -22 -37
-22 -4 0 14 -4 28 -10 31 -6 4 -10 -7 -10 -24 0 -21 -5 -31 -15 -31 -11 0 -15
11 -15 39 0 33 4 40 23 43 37 5 71 3 85 -5z m76 7 c21 -8 20 -24 -1 -25 -11 0
-13 -3 -5 -6 7 -2 17 -13 22 -23 8 -15 6 -21 -9 -30 -21 -10 -51 -4 -51 11 0
5 10 9 23 10 l22 0 -22 11 c-25 12 -31 43 -10 51 6 3 13 6 14 6 1 1 8 -2 17
-5z m-258 -31 c-1 -14 5 -28 12 -30 8 -3 12 6 12 26 0 21 5 31 15 31 11 0 15
-11 15 -39 0 -34 -3 -39 -27 -44 -15 -3 -33 -3 -40 0 -18 7 -18 83 0 83 8 0
13 -11 13 -27z m3444 3 c0 -2 -8 -10 -17 -17 -16 -13 -17 -12 -4 4 13 16 21
21 21 13z m810 -100 c0 -11 -19 -15 -25 -6 -3 5 1 10 9 10 9 0 16 -2 16 -4z"/>
<path d="M120 4610 c0 -28 2 -29 20 -18 11 7 20 15 20 18 0 3 -9 11 -20 18
-18 11 -20 10 -20 -18z"/>
<path d="M570 4600 c0 -11 4 -20 9 -20 11 0 22 26 14 34 -12 12 -23 5 -23 -14z"/>
<path d="M1030 4610 c0 -25 4 -31 18 -28 11 2 17 12 17 28 0 16 -6 26 -17 28
-14 3 -18 -3 -18 -28z"/>
<path d="M1470 4620 c0 -5 5 -10 11 -10 5 0 7 5 4 10 -3 6 -8 10 -11 10 -2 0
-4 -4 -4 -10z"/>
<path d="M315 4610 c-7 -12 2 -30 16 -30 5 0 9 9 9 20 0 21 -15 27 -25 10z"/>
<path d="M1310 4600 c0 -13 5 -20 13 -17 6 2 12 10 12 17 0 7 -6 15 -12 18 -8
2 -13 -5 -13 -18z"/>
<path d="M1375 4610 c-7 -12 2 -30 16 -30 5 0 9 9 9 20 0 21 -15 27 -25 10z"/>
<path d="M1532 4603 c5 -25 28 -28 28 -4 0 12 -6 21 -16 21 -9 0 -14 -7 -12
-17z"/>
<path d="M1597 4614 c-8 -8 3 -34 14 -34 5 0 9 9 9 20 0 19 -11 26 -23 14z"/>
<path d="M6885 4302 c-3 -3 4 -15 17 -25 l23 -19 -23 5 c-12 3 -20 1 -16 -4 7
-12 31 -12 39 1 7 11 -30 51 -40 42z"/>
<path d="M6942 4275 c0 -16 2 -22 5 -12 2 9 2 23 0 30 -3 6 -5 -1 -5 -18z"/>
<path d="M6963 4284 c-4 -10 1 -22 11 -29 13 -10 14 -14 4 -18 -8 -4 -7 -6 5
-6 13 -1 17 7 17 34 0 38 -25 50 -37 19z m27 -9 c0 -8 -4 -15 -10 -15 -5 0
-10 7 -10 15 0 8 5 15 10 15 6 0 10 -7 10 -15z"/>
<path d="M7010 4289 c0 -6 6 -9 14 -6 10 4 16 -2 19 -16 4 -18 5 -17 6 6 1 21
-4 27 -19 27 -11 0 -20 -5 -20 -11z"/>
<path d="M7092 4275 c0 -16 2 -22 5 -12 2 9 2 23 0 30 -3 6 -5 -1 -5 -18z"/>
<path d="M7111 4273 c2 -24 2 -25 6 -5 2 12 8 22 13 22 5 0 11 -10 13 -22 4
-20 4 -19 6 5 1 21 -4 27 -19 27 -15 0 -20 -6 -19 -27z"/>
<path d="M494 4306 c-15 -40 21 -80 54 -60 37 24 21 74 -25 74 -13 0 -26 -6
-29 -14z m40 -12 c13 -5 14 -9 5 -20 -16 -20 -29 -17 -29 6 0 22 1 23 24 14z"/>
<path d="M570 3855 c0 -8 5 -15 10 -15 6 0 10 7 10 15 0 8 -4 15 -10 15 -5 0
-10 -7 -10 -15z"/>
<path d="M2906 3671 c-4 -5 -2 -12 3 -15 5 -4 12 -2 15 3 4 5 2 12 -3 15 -5 4
-12 2 -15 -3z"/>
<path d="M2970 3640 c-13 -8 -12 -10 3 -10 9 0 17 5 17 10 0 12 -1 12 -20 0z"/>
<path d="M3556 3651 c-4 -7 -5 -15 -2 -18 9 -9 19 4 14 18 -4 11 -6 11 -12 0z"/>
<path d="M3606 3651 c-4 -5 -2 -12 3 -15 5 -4 12 -2 15 3 4 5 2 12 -3 15 -5 4
-12 2 -15 -3z"/>
<path d="M3660 3645 c0 -8 5 -15 10 -15 6 0 10 7 10 15 0 8 -4 15 -10 15 -5 0
-10 -7 -10 -15z"/>
<path d="M3710 3645 c0 -8 5 -15 10 -15 6 0 10 7 10 15 0 8 -4 15 -10 15 -5 0
-10 -7 -10 -15z"/>
<path d="M5220 3665 c0 -9 5 -15 11 -13 6 2 11 8 11 13 0 5 -5 11 -11 13 -6 2
-11 -4 -11 -13z"/>
<path d="M5670 3665 c0 -8 5 -15 10 -15 6 0 10 7 10 15 0 8 -4 15 -10 15 -5 0
-10 -7 -10 -15z"/>
<path d="M6880 3645 c0 -8 5 -15 10 -15 6 0 10 7 10 15 0 8 -4 15 -10 15 -5 0
-10 -7 -10 -15z"/>
<path d="M7180 3672 c0 -4 9 -13 20 -19 16 -11 18 -10 14 1 -6 15 -34 30 -34
18z"/>
<path d="M4210 3645 c0 -8 5 -15 10 -15 6 0 10 7 10 15 0 8 -4 15 -10 15 -5 0
-10 -7 -10 -15z"/>
<path d="M2430 3640 c-13 -8 -12 -10 3 -10 9 0 17 5 17 10 0 12 -1 12 -20 0z"/>
<path d="M2500 3645 c0 -8 5 -15 10 -15 6 0 10 7 10 15 0 8 -4 15 -10 15 -5 0
-10 -7 -10 -15z"/>
<path d="M4080 3645 c0 -8 5 -15 10 -15 6 0 10 7 10 15 0 8 -4 15 -10 15 -5 0
-10 -7 -10 -15z"/>
<path d="M4640 3645 c0 -8 5 -15 10 -15 6 0 10 7 10 15 0 8 -4 15 -10 15 -5 0
-10 -7 -10 -15z"/>
<path d="M5730 3645 c0 -8 5 -15 10 -15 6 0 10 7 10 15 0 8 -4 15 -10 15 -5 0
-10 -7 -10 -15z"/>
<path d="M5960 3645 c0 -9 5 -15 11 -13 6 2 11 8 11 13 0 5 -5 11 -11 13 -6 2
-11 -4 -11 -13z"/>
<path d="M6346 3651 c-4 -5 -2 -12 3 -15 5 -4 12 -2 15 3 4 5 2 12 -3 15 -5 4
-12 2 -15 -3z"/>
<path d="M607 3546 c-6 -16 2 -28 14 -20 12 7 11 34 0 34 -5 0 -11 -6 -14 -14z"/>
<path d="M690 3546 c0 -8 4 -17 9 -20 10 -7 23 19 14 28 -11 11 -23 6 -23 -8z"/>
<path d="M788 3553 c7 -3 16 -2 19 1 4 3 -2 6 -13 5 -11 0 -14 -3 -6 -6z"/>
<path d="M575 3240 c-7 -12 2 -30 16 -30 12 0 12 27 0 35 -5 3 -12 1 -16 -5z"/>
<path d="M2267 2904 c-4 -4 -7 -20 -7 -36 0 -23 4 -28 26 -28 23 0 25 3 22 32
-3 31 -25 48 -41 32z"/>
<path d="M6130 2894 c0 -8 5 -12 10 -9 6 4 8 11 5 16 -9 14 -15 11 -15 -7z"/>
<path d="M6211 2874 c0 -11 3 -14 6 -6 3 7 2 16 -1 19 -3 4 -6 -2 -5 -13z"/>
<path d="M2770 2854 c0 -14 5 -24 11 -22 6 2 10 7 10 11 -1 4 -1 14 -1 22 0 8
-4 15 -10 15 -5 0 -10 -12 -10 -26z"/>
<path d="M751 2634 c0 -11 3 -14 6 -6 3 7 2 16 -1 19 -3 4 -6 -2 -5 -13z"/>
<path d="M2496 2610 c-40 -5 -62 -29 -29 -31 73 -6 113 2 113 22 0 10 -41 15
-84 9z"/>
<path d="M2380 2462 c0 -15 29 -42 44 -42 7 0 21 9 31 20 15 17 16 20 3 20 -9
0 -30 3 -47 6 -19 4 -31 2 -31 -4z"/>
<path d="M2356 2411 c-8 -13 73 -21 119 -12 36 8 34 8 -26 8 -36 0 -71 3 -77
7 -6 3 -13 2 -16 -3z"/>
<path d="M2413 2373 c9 -2 23 -2 30 0 6 3 -1 5 -18 5 -16 0 -22 -2 -12 -5z"/>
<path d="M5476 2527 c3 -10 9 -15 12 -12 3 3 0 11 -7 18 -10 9 -11 8 -5 -6z"/>
<path d="M2821 2564 c0 -11 3 -14 6 -6 3 7 2 16 -1 19 -3 4 -6 -2 -5 -13z"/>
<path d="M3150 2566 c0 -9 5 -16 10 -16 6 0 10 4 10 9 0 6 -4 13 -10 16 -5 3
-10 -1 -10 -9z"/>
<path d="M6040 2579 c0 -5 5 -7 10 -4 6 3 10 2 10 -4 0 -5 -6 -12 -12 -14 -8
-3 -6 -6 5 -6 11 -1 17 6 17 19 0 11 -7 20 -15 20 -8 0 -15 -5 -15 -11z"/>
<path d="M6090 2570 c0 -11 5 -20 10 -20 6 0 10 9 10 20 0 11 -4 20 -10 20 -5
0 -10 -9 -10 -20z"/>
<path d="M6290 2570 c0 -11 5 -20 10 -20 6 0 10 9 10 20 0 11 -4 20 -10 20 -5
0 -10 -9 -10 -20z"/>
<path d="M6527 2571 c-3 -12 -1 -21 3 -21 15 0 23 21 12 32 -6 6 -11 2 -15
-11z"/>
<path d="M6710 2570 c0 -11 5 -20 10 -20 6 0 10 9 10 20 0 11 -4 20 -10 20 -5
0 -10 -9 -10 -20z"/>
<path d="M3280 2565 c0 -8 4 -15 10 -15 5 0 7 7 4 15 -4 8 -8 15 -10 15 -2 0
-4 -7 -4 -15z"/>
<path d="M3215 2151 c-3 -5 -1 -12 5 -16 5 -3 10 1 10 9 0 18 -6 21 -15 7z"/>
<path d="M5740 2150 c0 -11 4 -20 8 -20 4 0 8 9 8 20 0 11 -4 20 -8 20 -4 0
-8 -9 -8 -20z"/>
<path d="M5796 2151 c-4 -7 -5 -15 -2 -18 9 -9 19 4 14 18 -4 11 -6 11 -12 0z"/>
<path d="M5851 2144 c0 -11 3 -14 6 -6 3 7 2 16 -1 19 -3 4 -6 -2 -5 -13z"/>
<path d="M6506 2151 c-4 -7 -5 -15 -2 -18 9 -9 19 4 14 18 -4 11 -6 11 -12 0z"/>
<path d="M6655 2151 c-3 -5 -1 -12 5 -16 5 -3 10 1 10 9 0 18 -6 21 -15 7z"/>
<path d="M2770 2146 c0 -9 5 -16 10 -16 6 0 10 4 10 9 0 6 -4 13 -10 16 -5 3
-10 -1 -10 -9z"/>
<path d="M2950 2146 c0 -9 5 -16 10 -16 6 0 10 4 10 9 0 6 -4 13 -10 16 -5 3
-10 -1 -10 -9z"/>
<path d="M6856 2151 c-4 -7 -5 -15 -2 -18 9 -9 19 4 14 18 -4 11 -6 11 -12 0z"/>
<path d="M3376 2151 c-4 -7 -5 -15 -2 -18 9 -9 19 4 14 18 -4 11 -6 11 -12 0z"/>
<path d="M5502 2076 c7 -8 15 -12 17 -11 5 6 -10 25 -20 25 -5 0 -4 -6 3 -14z"/>
<path d="M2790 1726 c0 -9 5 -16 10 -16 6 0 10 4 10 9 0 6 -4 13 -10 16 -5 3
-10 -1 -10 -9z"/>
<path d="M6040 1726 c0 -9 5 -16 10 -16 6 0 10 4 10 9 0 6 -4 13 -10 16 -5 3
-10 -1 -10 -9z"/>
<path d="M6140 1720 c0 -5 5 -10 10 -10 6 0 10 5 10 10 0 6 -4 10 -10 10 -5 0
-10 -4 -10 -10z"/>
<path d="M2918 1713 c7 -3 16 -2 19 1 4 3 -2 6 -13 5 -11 0 -14 -3 -6 -6z"/>
<path d="M6330 1726 c0 -9 5 -16 10 -16 6 0 10 4 10 9 0 6 -4 13 -10 16 -5 3
-10 -1 -10 -9z"/>
<path d="M5535 1370 c3 -5 19 -10 36 -10 16 0 29 5 29 10 0 6 -16 10 -36 10
-21 0 -33 -4 -29 -10z"/>
<path d="M3106 1311 c-4 -7 -5 -15 -2 -18 9 -9 19 4 14 18 -4 11 -6 11 -12 0z"/>
<path d="M5865 1311 c-3 -5 -1 -12 5 -16 5 -3 10 1 10 9 0 18 -6 21 -15 7z"/>
<path d="M2950 1306 c0 -9 5 -16 10 -16 6 0 10 4 10 9 0 6 -4 13 -10 16 -5 3
-10 -1 -10 -9z"/>
<path d="M3760 1320 c0 -5 5 -10 10 -10 6 0 10 5 10 10 0 6 -4 10 -10 10 -5 0
-10 -4 -10 -10z"/>
<path d="M3915 1320 c-3 -5 -1 -10 4 -10 6 0 11 5 11 10 0 6 -2 10 -4 10 -3 0
-8 -4 -11 -10z"/>
<path d="M6040 1306 c0 -9 5 -16 10 -16 6 0 10 4 10 9 0 6 -4 13 -10 16 -5 3
-10 -1 -10 -9z"/>
<path d="M3180 1306 c0 -9 5 -16 10 -16 6 0 10 4 10 9 0 6 -4 13 -10 16 -5 3
-10 -1 -10 -9z"/>
<path d="M3490 1305 c0 -8 7 -15 15 -15 8 0 15 4 15 9 0 5 -7 11 -15 15 -9 3
-15 0 -15 -9z"/>
<path d="M3398 1293 c7 -3 16 -2 19 1 4 3 -2 6 -13 5 -11 0 -14 -3 -6 -6z"/>
<path d="M3978 1293 c6 -2 18 -2 25 0 6 3 1 5 -13 5 -14 0 -19 -2 -12 -5z"/>
<path d="M2260 195 c0 -10 7 -15 18 -13 21 4 19 22 -2 26 -10 2 -16 -3 -16
-13z"/>
<path d="M3120 150 c0 -13 5 -20 13 -17 6 2 12 10 12 17 0 7 -6 15 -12 18 -8
2 -13 -5 -13 -18z"/>
<path d="M3310 150 c0 -13 5 -20 13 -17 6 2 12 10 12 17 0 7 -6 15 -12 18 -8
2 -13 -5 -13 -18z"/>
<path d="M3610 150 c0 -13 5 -20 13 -17 6 2 12 10 12 17 0 7 -6 15 -12 18 -8
2 -13 -5 -13 -18z"/>
<path d="M2540 150 c0 -11 7 -20 15 -20 8 0 15 9 15 20 0 11 -7 20 -15 20 -8
0 -15 -9 -15 -20z"/>
<path d="M3228 163 c7 -3 16 -2 19 1 4 3 -2 6 -13 5 -11 0 -14 -3 -6 -6z"/>
</g>
</svg>
